<svg width="88" height="100" viewBox="0 0 88 100" fill="none" xmlns="http://www.w3.org/2000/svg">
<g clip-path="url(#clip0_327_1918)">
<path d="M65.156 34.608C63.1053 34.6187 61.3293 35.1107 59.8413 35.8454C59.2973 34.7587 58.7453 33.8027 58.6533 33.092C58.5453 32.2627 58.42 31.7667 58.5507 30.7787C58.6813 29.7907 59.2533 28.3907 59.2453 28.2854C59.2373 28.18 59.1173 27.6774 57.9347 27.668C56.752 27.66 55.74 27.896 55.6213 28.208C55.5027 28.52 55.2747 29.2227 55.1333 29.956C54.9267 31.028 52.772 34.8534 51.5493 36.8534C51.1493 36.072 50.8093 35.384 50.7387 34.84C50.6307 34.0107 50.5053 33.5147 50.636 32.5267C50.7667 31.5387 51.3387 30.1387 51.3307 30.0334C51.3227 29.928 51.2027 29.4254 50.02 29.416C48.8373 29.408 47.8253 29.644 47.7067 29.956C47.588 30.268 47.46 30.9974 47.2187 31.704C46.976 32.4094 44.1133 38.7894 43.3627 40.444C42.98 41.2867 42.648 41.964 42.4133 42.4254L42.412 42.4227C42.412 42.4227 42.3973 42.4534 42.3733 42.5054C42.172 42.8987 42.0533 43.116 42.0533 43.116C42.0533 43.116 42.0547 43.1187 42.0573 43.124C41.8973 43.4134 41.7267 43.6814 41.6427 43.6814C41.584 43.6814 41.4653 42.912 41.668 41.856C42.0947 39.6427 43.1173 36.192 43.108 36.072C43.1027 36.0107 43.2987 35.4094 42.44 35.0947C41.6053 34.7894 41.308 35.2987 41.232 35.3C41.1587 35.3014 41.104 35.48 41.104 35.48C41.104 35.48 42.0333 31.5987 39.3307 31.5987C37.64 31.5987 35.2987 33.448 34.1453 35.124C33.4173 35.5214 31.8587 36.372 30.2067 37.28C29.572 37.6294 28.924 37.9854 28.3093 38.324C28.268 38.2774 28.2253 38.232 28.1827 38.1854C24.904 34.688 18.8453 32.2147 19.1013 27.512C19.1947 25.8027 19.7893 21.3014 30.7453 15.8427C39.72 11.3707 46.9053 12.6014 48.1467 15.328C49.92 19.2254 44.3067 26.4667 34.9867 27.512C31.436 27.9107 29.5653 26.5334 29.1 26.0214C28.6107 25.4814 28.5373 25.4574 28.3547 25.5587C28.0573 25.724 28.2453 26.2 28.3547 26.484C28.6333 27.208 29.7747 28.492 31.7213 29.132C33.4347 29.6947 37.604 30.0027 42.6453 28.052C48.2933 25.868 52.7027 19.7907 51.4067 14.712C50.0893 9.5467 41.524 7.84803 33.4173 10.728C28.5867 12.4427 23.364 15.1334 19.608 18.6454C15.1427 22.8214 14.4307 26.4574 14.724 27.976C15.7667 33.3734 23.2053 36.888 26.184 39.492C26.0373 39.5734 25.8987 39.6494 25.7733 39.7187C24.28 40.4574 18.6093 43.4254 17.1907 46.56C15.5813 50.116 17.4467 52.668 18.6813 53.012C22.5067 54.076 26.432 52.1614 28.5427 49.0147C30.652 45.8694 30.3947 41.772 29.4267 39.9027C29.4147 39.88 29.4013 39.8574 29.3893 39.8334C29.7747 39.6054 30.168 39.3734 30.5573 39.144C31.3173 38.6974 32.064 38.2814 32.7107 37.9294C32.348 38.9214 32.0827 40.112 31.9453 41.8307C31.7827 43.8494 32.6107 46.4587 33.6933 47.4854C34.1707 47.9374 34.744 47.948 35.1067 47.948C36.3667 47.948 36.9413 46.9 37.5747 45.66C38.3507 44.14 39.04 42.3694 39.04 42.3694C39.04 42.3694 38.176 47.1507 40.5307 47.1507C41.3893 47.1507 42.252 46.0374 42.6373 45.4707C42.6387 45.4774 42.6387 45.48 42.6387 45.48C42.6387 45.48 42.6613 45.4427 42.7053 45.3694C42.7947 45.2334 42.8453 45.1467 42.8453 45.1467C42.8453 45.1467 42.8467 45.1374 42.8493 45.1214C43.1947 44.5227 43.96 43.1574 45.1067 40.9054C46.5893 37.996 48.0107 34.3507 48.0107 34.3507C48.0107 34.3507 48.1427 35.2414 48.576 36.716C48.8307 37.5827 49.372 38.5414 49.8 39.4614C49.456 39.9387 49.2453 40.212 49.2453 40.212C49.2453 40.212 49.2467 40.2174 49.2507 40.2267C48.976 40.592 48.668 40.9854 48.3453 41.3694C47.1747 42.7627 45.7813 44.3547 45.5947 44.8134C45.3747 45.3547 45.4267 45.752 45.852 46.0734C46.1627 46.3067 46.7147 46.344 47.292 46.3054C48.344 46.2347 49.0827 45.9734 49.448 45.8147C50.0173 45.6134 50.68 45.2974 51.3013 44.84C52.4493 43.996 53.1413 42.7894 53.0747 41.1894C53.0373 40.308 52.7573 39.4347 52.4013 38.6107C52.5053 38.4614 52.6093 38.3094 52.7147 38.1574C54.524 35.512 55.928 32.6054 55.928 32.6054C55.928 32.6054 56.06 33.496 56.4933 34.9707C56.712 35.716 57.1453 36.5307 57.5347 37.328C55.8333 38.7107 54.7787 40.3174 54.412 41.3707C53.7347 43.32 54.2653 44.2027 55.26 44.404C55.7107 44.4947 56.348 44.288 56.8267 44.0854C57.4227 43.888 58.1387 43.5587 58.808 43.0667C59.956 42.2227 61.06 41.0414 60.9933 39.4427C60.9627 38.7147 60.7653 37.992 60.4973 37.2987C61.94 36.6974 63.8067 36.364 66.1853 36.6414C71.288 37.2374 72.288 40.4227 72.0973 41.756C71.9053 43.0894 70.836 43.8227 70.4773 44.044C70.12 44.2654 70.0107 44.3427 70.04 44.5067C70.084 44.7454 70.2493 44.7374 70.5547 44.6854C70.9747 44.6147 73.2333 43.6014 73.3307 41.14C73.452 38.012 70.4587 34.58 65.156 34.608ZM25.8267 47.8667C24.136 49.7107 21.776 50.4067 20.7627 49.82C19.6693 49.1867 20.1027 46.472 22.176 44.5147C23.44 43.3227 25.072 42.224 26.1547 41.548C26.4013 41.4 26.7627 41.1827 27.2027 40.9187C27.276 40.8774 27.3173 40.8547 27.3173 40.8547L27.316 40.852C27.4013 40.8014 27.488 40.7494 27.5773 40.6947C28.3333 43.48 27.6013 45.932 25.8267 47.8667ZM38.14 39.4974C37.552 40.932 36.32 44.604 35.5693 44.4067C34.9253 44.2374 34.5333 41.4467 35.4413 38.7C35.8973 37.3174 36.8733 35.6654 37.4467 35.024C38.3693 33.992 39.3853 33.6547 39.632 34.0734C39.9453 34.6067 38.5093 38.5974 38.14 39.4974ZM48.312 44.3507C48.0627 44.4814 47.8333 44.5627 47.728 44.5C47.6493 44.4534 47.8307 44.2814 47.8307 44.2814C47.8307 44.2814 49.1027 42.912 49.604 42.2894C49.896 41.9267 50.2333 41.496 50.6013 41.016C50.604 41.064 50.6053 41.112 50.6053 41.1587C50.6027 42.7987 49.0187 43.9054 48.312 44.3507ZM56.148 42.564C55.9613 42.432 55.9933 42.004 56.6053 40.6694C56.8453 40.1454 57.3947 39.264 58.3467 38.4214C58.4573 38.768 58.524 39.1 58.5227 39.4094C58.5107 41.4734 57.0387 42.244 56.148 42.564Z" fill="#F06292"/>
<path d="M8.74432 83.1818C8.66761 82.5341 8.35653 82.0312 7.81108 81.6733C7.26563 81.3153 6.59659 81.1364 5.80398 81.1364C5.22443 81.1364 4.71733 81.2301 4.28267 81.4176C3.85227 81.6051 3.51563 81.8629 3.27273 82.1911C3.03409 82.5192 2.91477 82.892 2.91477 83.3097C2.91477 83.6591 2.99787 83.9595 3.16406 84.2109C3.33452 84.4581 3.55185 84.6648 3.81605 84.831C4.08026 84.9929 4.35724 85.1271 4.64702 85.2337C4.93679 85.3359 5.20312 85.419 5.44602 85.483L6.77557 85.8409C7.11648 85.9304 7.49574 86.054 7.91335 86.2116C8.33523 86.3693 8.73793 86.5845 9.12145 86.8572C9.50923 87.1257 9.82884 87.4709 10.0803 87.8928C10.3317 88.3146 10.4574 88.8324 10.4574 89.446C10.4574 90.1534 10.272 90.7926 9.90128 91.3636C9.5348 91.9347 8.99787 92.3885 8.29048 92.7251C7.58736 93.0618 6.73295 93.2301 5.72727 93.2301C4.78977 93.2301 3.97798 93.0788 3.2919 92.7763C2.61009 92.4737 2.07315 92.0518 1.68111 91.5107C1.29332 90.9695 1.07386 90.3409 1.02273 89.625H2.65909C2.7017 90.1193 2.8679 90.5284 3.15767 90.8523C3.4517 91.1719 3.82244 91.4105 4.26989 91.5682C4.72159 91.7216 5.20739 91.7983 5.72727 91.7983C6.33239 91.7983 6.87571 91.7003 7.35724 91.5043C7.83878 91.304 8.22017 91.027 8.50142 90.6733C8.78267 90.3153 8.9233 89.8977 8.9233 89.4205C8.9233 88.9858 8.80185 88.6321 8.55895 88.3594C8.31605 88.0866 7.99645 87.8651 7.60014 87.6946C7.20384 87.5241 6.77557 87.375 6.31534 87.2472L4.70455 86.7869C3.68182 86.4929 2.87216 86.0732 2.27557 85.5277C1.67898 84.9822 1.38068 84.2685 1.38068 83.3864C1.38068 82.6534 1.57884 82.0142 1.97514 81.4688C2.37571 80.919 2.91264 80.4929 3.58594 80.1903C4.26349 79.8835 5.01989 79.7301 5.85511 79.7301C6.69886 79.7301 7.44886 79.8814 8.10511 80.1839C8.76136 80.4822 9.28125 80.8913 9.66477 81.4112C10.0526 81.9311 10.2571 82.5213 10.2784 83.1818H8.74432ZM15.7484 93.2301C15.1262 93.2301 14.5616 93.1129 14.0545 92.8786C13.5474 92.6399 13.1447 92.2969 12.8464 91.8494C12.5481 91.3977 12.399 90.8523 12.399 90.2131C12.399 89.6506 12.5098 89.1946 12.7314 88.8452C12.9529 88.4915 13.2491 88.2145 13.6199 88.0142C13.9906 87.8139 14.3997 87.6648 14.8471 87.5668C15.2988 87.4645 15.7527 87.3835 16.2086 87.3239C16.8052 87.2472 17.2889 87.1896 17.6596 87.1513C18.0346 87.1087 18.3074 87.0384 18.4778 86.9403C18.6525 86.8423 18.7399 86.6719 18.7399 86.429V86.3778C18.7399 85.7472 18.5673 85.2571 18.2221 84.9077C17.8812 84.5582 17.3635 84.3835 16.6689 84.3835C15.9487 84.3835 15.3841 84.5412 14.975 84.8565C14.5659 85.1719 14.2782 85.5085 14.112 85.8665L12.6802 85.3551C12.9359 84.7585 13.2768 84.294 13.7029 83.9616C14.1333 83.625 14.6021 83.3906 15.1092 83.2585C15.6206 83.1222 16.1234 83.054 16.6177 83.054C16.9331 83.054 17.2953 83.0923 17.7044 83.169C18.1177 83.2415 18.5162 83.3928 18.8997 83.6229C19.2875 83.853 19.6092 84.2003 19.8649 84.6648C20.1206 85.1293 20.2484 85.7514 20.2484 86.5312V93H18.7399V91.6705H18.6632C18.5609 91.8835 18.3904 92.1115 18.1518 92.3544C17.9132 92.5973 17.5957 92.804 17.1994 92.9744C16.8031 93.1449 16.3194 93.2301 15.7484 93.2301ZM15.9785 91.875C16.5751 91.875 17.0779 91.7578 17.487 91.5234C17.9004 91.2891 18.2115 90.9865 18.4203 90.6158C18.6333 90.245 18.7399 89.8551 18.7399 89.446V88.0653C18.676 88.142 18.5353 88.2124 18.318 88.2763C18.1049 88.3359 17.8578 88.3892 17.5765 88.4361C17.2995 88.4787 17.0289 88.517 16.7647 88.5511C16.5048 88.581 16.2939 88.6065 16.1319 88.6278C15.7399 88.679 15.3734 88.7621 15.0325 88.8771C14.6958 88.9879 14.4231 89.1562 14.2143 89.3821C14.0098 89.6037 13.9075 89.9062 13.9075 90.2898C13.9075 90.8139 14.1014 91.2102 14.4892 91.4787C14.8812 91.7429 15.3777 91.875 15.9785 91.875ZM29.9563 85.3807L28.6012 85.7642C28.516 85.5384 28.3903 85.3189 28.2241 85.1058C28.0621 84.8885 27.8406 84.7095 27.5593 84.5689C27.2781 84.4283 26.918 84.358 26.479 84.358C25.8782 84.358 25.3775 84.4964 24.9769 84.7734C24.5806 85.0462 24.3825 85.3935 24.3825 85.8153C24.3825 86.1903 24.5188 86.4865 24.7915 86.7038C25.0643 86.9212 25.4904 87.1023 26.07 87.2472L27.5273 87.6051C28.4052 87.8182 29.0593 88.1442 29.4897 88.5831C29.9201 89.0178 30.1353 89.5781 30.1353 90.2642C30.1353 90.8267 29.9734 91.3295 29.6495 91.7727C29.3299 92.2159 28.8825 92.5653 28.3072 92.821C27.7319 93.0767 27.0629 93.2045 26.3001 93.2045C25.2987 93.2045 24.4698 92.9872 23.8136 92.5526C23.1573 92.1179 22.7418 91.483 22.5671 90.6477L23.9989 90.2898C24.1353 90.8182 24.3931 91.2145 24.7724 91.4787C25.1559 91.7429 25.6566 91.875 26.2745 91.875C26.9776 91.875 27.5359 91.7259 27.9492 91.4276C28.3668 91.125 28.5756 90.7628 28.5756 90.3409C28.5756 90 28.4563 89.7145 28.2177 89.4844C27.979 89.25 27.6126 89.0753 27.1183 88.9602L25.4819 88.5767C24.5827 88.3636 23.9222 88.0334 23.5004 87.5859C23.0827 87.1342 22.8739 86.5696 22.8739 85.892C22.8739 85.3381 23.0295 84.848 23.3406 84.4219C23.6559 83.9957 24.0842 83.6612 24.6254 83.4183C25.1708 83.1754 25.7887 83.054 26.479 83.054C27.4506 83.054 28.2134 83.267 28.7674 83.6932C29.3256 84.1193 29.7219 84.6818 29.9563 85.3807ZM39.3606 85.3807L38.0055 85.7642C37.9203 85.5384 37.7946 85.3189 37.6284 85.1058C37.4664 84.8885 37.2449 84.7095 36.9636 84.5689C36.6824 84.4283 36.3223 84.358 35.8833 84.358C35.2825 84.358 34.7818 84.4964 34.3812 84.7734C33.9849 85.0462 33.7868 85.3935 33.7868 85.8153C33.7868 86.1903 33.9231 86.4865 34.1958 86.7038C34.4686 86.9212 34.8947 87.1023 35.4743 87.2472L36.9316 87.6051C37.8095 87.8182 38.4636 88.1442 38.894 88.5831C39.3244 89.0178 39.5396 89.5781 39.5396 90.2642C39.5396 90.8267 39.3777 91.3295 39.0538 91.7727C38.7342 92.2159 38.2868 92.5653 37.7115 92.821C37.1362 93.0767 36.4672 93.2045 35.7044 93.2045C34.7029 93.2045 33.8741 92.9872 33.2179 92.5526C32.5616 92.1179 32.1461 91.483 31.9714 90.6477L33.4032 90.2898C33.5396 90.8182 33.7974 91.2145 34.1767 91.4787C34.5602 91.7429 35.0609 91.875 35.6788 91.875C36.3819 91.875 36.9402 91.7259 37.3535 91.4276C37.7711 91.125 37.9799 90.7628 37.9799 90.3409C37.9799 90 37.8606 89.7145 37.622 89.4844C37.3833 89.25 37.0169 89.0753 36.5226 88.9602L34.8862 88.5767C33.987 88.3636 33.3265 88.0334 32.9047 87.5859C32.487 87.1342 32.2782 86.5696 32.2782 85.892C32.2782 85.3381 32.4338 84.848 32.7449 84.4219C33.0602 83.9957 33.4885 83.6612 34.0297 83.4183C34.5751 83.1754 35.193 83.054 35.8833 83.054C36.8549 83.054 37.6177 83.267 38.1717 83.6932C38.7299 84.1193 39.1262 84.6818 39.3606 85.3807ZM46.4382 79.2955L42.2195 94.9688H40.8388L45.0575 79.2955H46.4382ZM55.59 83.1818C55.5133 82.5341 55.2022 82.0312 54.6568 81.6733C54.1113 81.3153 53.4423 81.1364 52.6497 81.1364C52.0701 81.1364 51.563 81.2301 51.1284 81.4176C50.698 81.6051 50.3613 81.8629 50.1184 82.1911C49.8798 82.5192 49.7605 82.892 49.7605 83.3097C49.7605 83.6591 49.8436 83.9595 50.0098 84.2109C50.1802 84.4581 50.3975 84.6648 50.6618 84.831C50.926 84.9929 51.2029 85.1271 51.4927 85.2337C51.7825 85.3359 52.0488 85.419 52.2917 85.483L53.6213 85.8409C53.9622 85.9304 54.3414 86.054 54.7591 86.2116C55.1809 86.3693 55.5836 86.5845 55.9672 86.8572C56.3549 87.1257 56.6745 87.4709 56.926 87.8928C57.1774 88.3146 57.3031 88.8324 57.3031 89.446C57.3031 90.1534 57.1177 90.7926 56.747 91.3636C56.3805 91.9347 55.8436 92.3885 55.1362 92.7251C54.4331 93.0618 53.5787 93.2301 52.573 93.2301C51.6355 93.2301 50.8237 93.0788 50.1376 92.7763C49.4558 92.4737 48.9189 92.0518 48.5268 91.5107C48.139 90.9695 47.9196 90.3409 47.8684 89.625H49.5048C49.5474 90.1193 49.7136 90.5284 50.0034 90.8523C50.2974 91.1719 50.6681 91.4105 51.1156 91.5682C51.5673 91.7216 52.0531 91.7983 52.573 91.7983C53.1781 91.7983 53.7214 91.7003 54.2029 91.5043C54.6845 91.304 55.0659 91.027 55.3471 90.6733C55.6284 90.3153 55.769 89.8977 55.769 89.4205C55.769 88.9858 55.6476 88.6321 55.4047 88.3594C55.1618 88.0866 54.8422 87.8651 54.4458 87.6946C54.0495 87.5241 53.6213 87.375 53.161 87.2472L51.5502 86.7869C50.5275 86.4929 49.7179 86.0732 49.1213 85.5277C48.5247 84.9822 48.2264 84.2685 48.2264 83.3864C48.2264 82.6534 48.4245 82.0142 48.8208 81.4688C49.2214 80.919 49.7583 80.4929 50.4316 80.1903C51.1092 79.8835 51.8656 79.7301 52.7008 79.7301C53.5446 79.7301 54.2946 79.8814 54.9508 80.1839C55.6071 80.4822 56.127 80.8913 56.5105 81.4112C56.8983 81.9311 57.1028 82.5213 57.1241 83.1818H55.59ZM63.6935 93.2045C62.7731 93.2045 61.9805 92.9872 61.3157 92.5526C60.6509 92.1179 60.1396 91.5192 59.7816 90.7564C59.4237 89.9936 59.2447 89.1222 59.2447 88.142C59.2447 87.1449 59.4279 86.2649 59.7944 85.5021C60.1651 84.7351 60.6808 84.1364 61.3413 83.706C62.006 83.2713 62.7816 83.054 63.668 83.054C64.3583 83.054 64.9805 83.1818 65.5344 83.4375C66.0884 83.6932 66.5423 84.0511 66.896 84.5114C67.2496 84.9716 67.4691 85.5085 67.5543 86.1222H66.0458C65.9308 85.6747 65.6751 85.2784 65.2788 84.9332C64.8867 84.5838 64.3583 84.4091 63.6935 84.4091C63.1055 84.4091 62.5898 84.5625 62.1467 84.8693C61.7077 85.1719 61.3647 85.6001 61.1175 86.1541C60.8746 86.7038 60.7532 87.3494 60.7532 88.0909C60.7532 88.8494 60.8725 89.5099 61.1112 90.0724C61.354 90.6349 61.695 91.0717 62.1339 91.3828C62.5771 91.6939 63.0969 91.8494 63.6935 91.8494C64.0856 91.8494 64.4414 91.7812 64.761 91.6449C65.0806 91.5085 65.3512 91.3125 65.5728 91.0568C65.7944 90.8011 65.9521 90.4943 66.0458 90.1364H67.5543C67.4691 90.7159 67.2582 91.2379 66.9215 91.7024C66.5891 92.1626 66.1481 92.5291 65.5984 92.8018C65.0529 93.0703 64.418 93.2045 63.6935 93.2045ZM76.7141 85.3807L75.359 85.7642C75.2738 85.5384 75.1481 85.3189 74.9819 85.1058C74.82 84.8885 74.5984 84.7095 74.3171 84.5689C74.0359 84.4283 73.6758 84.358 73.2369 84.358C72.636 84.358 72.1353 84.4964 71.7347 84.7734C71.3384 85.0462 71.1403 85.3935 71.1403 85.8153C71.1403 86.1903 71.2766 86.4865 71.5494 86.7038C71.8221 86.9212 72.2482 87.1023 72.8278 87.2472L74.2852 87.6051C75.163 87.8182 75.8171 88.1442 76.2475 88.5831C76.6779 89.0178 76.8931 89.5781 76.8931 90.2642C76.8931 90.8267 76.7312 91.3295 76.4073 91.7727C76.0877 92.2159 75.6403 92.5653 75.065 92.821C74.4897 93.0767 73.8207 93.2045 73.0579 93.2045C72.0565 93.2045 71.2276 92.9872 70.5714 92.5526C69.9151 92.1179 69.4996 91.483 69.3249 90.6477L70.7567 90.2898C70.8931 90.8182 71.1509 91.2145 71.5302 91.4787C71.9137 91.7429 72.4144 91.875 73.0323 91.875C73.7354 91.875 74.2937 91.7259 74.707 91.4276C75.1246 91.125 75.3335 90.7628 75.3335 90.3409C75.3335 90 75.2141 89.7145 74.9755 89.4844C74.7369 89.25 74.3704 89.0753 73.8761 88.9602L72.2397 88.5767C71.3406 88.3636 70.68 88.0334 70.2582 87.5859C69.8406 87.1342 69.6317 86.5696 69.6317 85.892C69.6317 85.3381 69.7873 84.848 70.0984 84.4219C70.4137 83.9957 70.842 83.6612 71.3832 83.4183C71.9286 83.1754 72.5465 83.054 73.2369 83.054C74.2085 83.054 74.9712 83.267 75.5252 83.6932C76.0835 84.1193 76.4798 84.6818 76.7141 85.3807ZM86.1184 85.3807L84.7633 85.7642C84.6781 85.5384 84.5524 85.3189 84.3862 85.1058C84.2243 84.8885 84.0027 84.7095 83.7214 84.5689C83.4402 84.4283 83.0801 84.358 82.6412 84.358C82.0403 84.358 81.5396 84.4964 81.139 84.7734C80.7427 85.0462 80.5446 85.3935 80.5446 85.8153C80.5446 86.1903 80.6809 86.4865 80.9537 86.7038C81.2264 86.9212 81.6525 87.1023 82.2321 87.2472L83.6895 87.6051C84.5673 87.8182 85.2214 88.1442 85.6518 88.5831C86.0822 89.0178 86.2974 89.5781 86.2974 90.2642C86.2974 90.8267 86.1355 91.3295 85.8116 91.7727C85.492 92.2159 85.0446 92.5653 84.4693 92.821C83.894 93.0767 83.225 93.2045 82.4622 93.2045C81.4608 93.2045 80.6319 92.9872 79.9757 92.5526C79.3194 92.1179 78.9039 91.483 78.7292 90.6477L80.161 90.2898C80.2974 90.8182 80.5552 91.2145 80.9345 91.4787C81.318 91.7429 81.8187 91.875 82.4366 91.875C83.1397 91.875 83.698 91.7259 84.1113 91.4276C84.5289 91.125 84.7377 90.7628 84.7377 90.3409C84.7377 90 84.6184 89.7145 84.3798 89.4844C84.1412 89.25 83.7747 89.0753 83.2804 88.9602L81.644 88.5767C80.7449 88.3636 80.0843 88.0334 79.6625 87.5859C79.2449 87.1342 79.036 86.5696 79.036 85.892C79.036 85.3381 79.1916 84.848 79.5027 84.4219C79.818 83.9957 80.2463 83.6612 80.7875 83.4183C81.3329 83.1754 81.9508 83.054 82.6412 83.054C83.6127 83.054 84.3755 83.267 84.9295 83.6932C85.4877 84.1193 85.8841 84.6818 86.1184 85.3807Z" fill="#D1D5DB"/>
</g>
<defs>
<clipPath id="clip0_327_1918">
<rect width="88" height="100" fill="white"/>
</clipPath>
</defs>
</svg>
