<svg width="67" height="100" viewBox="0 0 67 100" fill="none" xmlns="http://www.w3.org/2000/svg">
<g clip-path="url(#clip0_327_1902)">
<path fill-rule="evenodd" clip-rule="evenodd" d="M38.2873 1.06177C37.8355 1.06177 37.416 1.15886 37.0287 1.2883C37.8516 1.83845 38.3034 2.5666 38.5293 3.39183C38.5455 3.50509 38.5777 3.586 38.5939 3.69926C38.61 3.79635 38.6261 3.89344 38.6261 3.99053C38.6907 5.41445 38.255 5.59244 37.9484 6.43385C37.4805 7.51798 37.6096 8.68301 38.1743 9.6215C38.2227 9.73477 38.2873 9.86421 38.3679 9.97748C37.7548 5.8837 41.1593 5.26882 41.7886 3.99053C41.837 2.87404 40.9173 2.12971 40.1912 1.61192C39.4974 1.19122 38.8681 1.06177 38.2873 1.06177ZM43.4182 1.98408C43.3536 2.35624 43.4021 2.25916 43.386 2.45333C43.3698 2.58278 43.3698 2.74459 43.3537 2.87404C43.3215 3.00348 43.2891 3.13293 43.2408 3.26238C43.2085 3.39183 43.1601 3.52128 43.1117 3.65072C43.0471 3.78018 42.9987 3.89344 42.9342 4.02288C42.8858 4.08764 42.8535 4.15233 42.8051 4.21706C42.7729 4.2656 42.7406 4.31414 42.7083 4.36269C42.6276 4.47596 42.547 4.58922 42.4663 4.6863C42.3695 4.78339 42.2888 4.89666 42.1759 4.97757V4.99377C42.079 5.07467 41.9822 5.17176 41.8693 5.25266C41.5305 5.51155 41.1432 5.70573 40.7882 5.94844C40.6753 6.02935 40.5624 6.09407 40.4655 6.19116C40.3526 6.27206 40.2558 6.35296 40.159 6.45005C40.046 6.54714 39.9654 6.64423 39.8685 6.75749C39.7879 6.85458 39.6911 6.96784 39.6265 7.08111C39.5458 7.19438 39.4652 7.30765 39.4006 7.42091C39.3361 7.55035 39.2877 7.66363 39.2231 7.79307C39.1747 7.92252 39.1263 8.03579 39.0941 8.16523C39.0457 8.31086 39.0134 8.44031 38.9811 8.56976C38.965 8.63451 38.965 8.71539 38.9489 8.78011C38.9327 8.84486 38.9327 8.90956 38.9166 8.97429C38.9166 9.10373 38.9005 9.24936 38.9005 9.37881C38.9005 9.47589 38.9005 9.57298 38.9166 9.67007C38.9166 9.79951 38.9328 9.92896 38.965 10.0746C38.9812 10.204 39.0134 10.3335 39.0457 10.4629C39.0941 10.5924 39.1264 10.7218 39.1748 10.8513C39.207 10.9322 39.2555 11.0131 39.2877 11.0778L35.5767 9.6377C34.9474 9.45971 34.3343 9.29791 33.705 9.15228C33.3662 9.07137 33.0273 8.99046 32.6885 8.90956C31.7204 8.71539 30.7362 8.56976 29.7519 8.47268C29.7197 8.47268 29.7035 8.45647 29.6713 8.45647C28.7032 8.35939 27.7512 8.31085 26.7831 8.31085C26.0731 8.31085 25.3632 8.34318 24.6694 8.39175C23.6852 8.4565 22.7009 8.58592 21.7167 8.74773C21.4747 8.78007 21.2326 8.82864 20.9906 8.87718C20.4904 8.97426 20.0064 9.08753 19.5385 9.2008C19.2964 9.26555 19.0544 9.33025 18.8124 9.39497C18.5704 9.49205 18.3445 9.60532 18.1186 9.70241C17.9411 9.78331 17.7636 9.86422 17.5861 9.94513C17.5539 9.96133 17.5215 9.96133 17.5054 9.97746C17.3441 10.0584 17.1989 10.1231 17.0537 10.204C17.0053 10.2202 16.973 10.2363 16.9407 10.2525C16.7632 10.3334 16.5857 10.4305 16.4405 10.5114C16.3276 10.56 16.2146 10.6247 16.1178 10.6732C16.0694 10.7056 16.0049 10.738 15.9726 10.7541C15.8274 10.8351 15.6822 10.916 15.5531 10.9969C15.4079 11.0778 15.2788 11.1587 15.1659 11.2396C15.0529 11.3205 14.94 11.3852 14.8432 11.4661C14.827 11.4823 14.8109 11.4823 14.7948 11.4984C14.6979 11.5632 14.585 11.6441 14.4882 11.725C14.4882 11.725 14.472 11.7412 14.4559 11.7573C14.3753 11.8221 14.2946 11.8868 14.2139 11.9515C14.1817 11.9677 14.1494 12 14.1171 12.0162C14.0364 12.081 13.9558 12.1619 13.8751 12.2266C13.8589 12.2589 13.8267 12.2751 13.8105 12.2913C13.7137 12.3884 13.6169 12.4693 13.5201 12.5664C13.5039 12.5664 13.5039 12.5826 13.4878 12.5988C13.391 12.6797 13.2942 12.7767 13.1974 12.8738C13.1812 12.89 13.1812 12.9062 13.1652 12.9062C13.0845 12.9871 13.0038 13.068 12.9231 13.1651C12.8909 13.1974 12.8425 13.2298 12.8102 13.2621C12.7295 13.3592 12.6327 13.4563 12.5359 13.5534C12.5197 13.5857 12.4875 13.6019 12.4713 13.6343C12.3423 13.7638 12.2293 13.8932 12.1002 14.0227C12.0841 14.0389 12.068 14.055 12.0518 14.0712C11.7937 14.3463 11.5194 14.6213 11.2289 14.8641C10.9385 15.123 10.6319 15.3657 10.3254 15.576C10.0027 15.8026 9.69611 15.9967 9.35727 16.1909C9.03457 16.3689 8.69573 16.5307 8.34077 16.6763C8.00193 16.822 7.64696 16.9514 7.29199 17.0647C6.61431 17.2103 5.92051 17.4854 5.32351 17.5339C5.19443 17.5339 5.04922 17.5663 4.92014 17.5825C4.77492 17.6148 4.64584 17.6472 4.51676 17.6796C4.38769 17.7281 4.2586 17.7766 4.12952 17.8252C4.00044 17.8737 3.87136 17.9384 3.74228 18.0032C3.62934 18.0841 3.50026 18.1488 3.38731 18.2297C3.27437 18.3106 3.16142 18.4077 3.06461 18.5048C2.95167 18.5857 2.83872 18.699 2.74191 18.796C2.6451 18.9093 2.54829 19.0064 2.46761 19.1197C2.38694 19.2491 2.29013 19.3624 2.22559 19.4918C2.14491 19.6051 2.06424 19.7345 1.9997 19.864C1.93513 20.0096 1.87062 20.1391 1.82221 20.2847C1.77381 20.4141 1.7254 20.5598 1.67699 20.7054C1.64475 20.8348 1.61243 20.9643 1.59632 21.0937C1.59632 21.11 1.58016 21.1261 1.58016 21.1423C1.54792 21.2879 1.54792 21.4821 1.53176 21.5792C1.5156 21.6924 1.49951 21.7895 1.49951 21.9028C1.49951 21.9675 1.49951 22.0484 1.51567 22.1131C1.53183 22.2264 1.54792 22.3235 1.58024 22.4206C1.61248 22.5177 1.6448 22.6147 1.69318 22.7118V22.728C1.74158 22.8251 1.80613 22.9222 1.87066 23.0193C1.93523 23.1164 1.99975 23.2135 2.08042 23.3106C2.1611 23.3915 2.25791 23.4885 2.35472 23.5695C2.45153 23.6665 2.54834 23.7474 2.66128 23.8283C3.04852 24.1681 3.14533 24.2814 3.64552 24.5403C3.72619 24.5889 3.80687 24.6212 3.90368 24.6698C3.91985 24.6698 3.93593 24.686 3.95209 24.686C3.95209 24.7183 3.95209 24.7345 3.96825 24.7669C3.98441 24.8963 4.01666 25.0258 4.04893 25.1552C4.08117 25.3008 4.12961 25.4303 4.17801 25.5436C4.22642 25.6406 4.25868 25.7377 4.30709 25.8348C4.32325 25.8672 4.33934 25.8996 4.3555 25.9157C4.42006 26.0452 4.48457 26.1584 4.54911 26.2717C4.62979 26.385 4.71046 26.4982 4.79114 26.6115C4.87181 26.7086 4.96862 26.8219 5.06543 26.9189C5.16224 27.016 5.25905 27.0969 5.372 27.194C5.372 27.194 5.38817 27.2102 5.40425 27.2102C5.50106 27.2911 5.59787 27.3721 5.69468 27.4368C5.80762 27.5177 5.92057 27.5824 6.04965 27.6471C6.1626 27.7119 6.29168 27.7766 6.42076 27.8251C6.51757 27.8737 6.63051 27.906 6.74346 27.9384C6.75962 27.9546 6.7757 27.9546 6.80802 27.9707C6.87259 27.987 6.95323 28.0031 7.01777 28.0193C6.96937 28.893 6.95321 29.7183 7.08234 30.0095C7.22755 30.3331 7.93749 29.3461 8.64744 28.2134C8.55063 29.3299 8.48608 30.6406 8.64744 31.0289C8.82492 31.4334 9.79302 30.1713 10.632 28.7798C22.0718 26.1261 32.5112 34.0548 33.6083 45.252C33.3986 43.5044 31.2526 42.5336 30.2684 42.7763C29.7843 43.9737 28.9614 45.5109 27.6384 46.4656C27.7513 45.3976 27.7029 44.2973 27.477 43.2294C27.1221 44.718 26.4282 46.1096 25.4763 47.307C23.9434 47.4202 22.4106 46.6759 21.6039 45.5594C21.5393 45.5109 21.5232 45.4138 21.4748 45.3491C21.4264 45.2358 21.378 45.1226 21.3457 45.0093C21.2973 44.896 21.265 44.7827 21.2489 44.6695C21.2327 44.5562 21.2327 44.4429 21.2327 44.3135C21.2327 44.2326 21.2327 44.1517 21.2327 44.0708C21.2489 43.9575 21.2811 43.8442 21.3134 43.731C21.3456 43.6177 21.378 43.5044 21.4264 43.3912C21.4909 43.2779 21.5393 43.1646 21.62 43.0514C21.8943 42.2747 21.8943 41.6436 21.3941 41.2715C21.2973 41.2067 21.2005 41.1582 21.0875 41.1097C21.0229 41.0935 20.9423 41.0611 20.8778 41.0449C20.8294 41.0287 20.7971 41.0126 20.7487 40.9964C20.6357 40.964 20.5228 40.9316 20.4098 40.9155C20.2969 40.8831 20.184 40.8669 20.071 40.8669C19.9581 40.8507 19.829 40.8346 19.716 40.8346C19.6354 40.8346 19.5547 40.8508 19.474 40.8508C19.3449 40.8508 19.232 40.867 19.119 40.8993C19.0061 40.9156 18.8932 40.9317 18.7802 40.9641C18.6673 40.9964 18.5543 41.0288 18.4414 41.0774C18.3284 41.1259 18.2316 41.1744 18.1187 41.223C18.0219 41.2715 17.9251 41.3362 17.8121 41.3848C14.0526 43.8443 16.2954 49.6047 18.8609 51.2714C17.8928 51.4493 16.9085 51.6597 16.6342 51.8701C16.6181 51.8863 16.602 51.9024 16.602 51.9024C17.2958 52.3231 18.0219 52.6791 18.7802 52.9865C19.8129 53.3263 20.9101 53.6338 21.3941 53.7632V53.7794C22.7333 54.0545 24.0887 54.1516 25.4601 54.0707C32.608 53.5691 38.465 48.1161 39.5299 40.9317C39.5621 41.0773 39.5945 41.2068 39.6267 41.3524C39.6751 41.6437 39.7396 41.9511 39.7719 42.2586V42.2748C39.8042 42.4204 39.8203 42.566 39.8365 42.6955V42.7602C39.8527 42.9059 39.8687 43.0515 39.8687 43.1809C39.8849 43.3589 39.901 43.5369 39.901 43.7149V43.9738C39.901 44.0547 39.9171 44.1518 39.9171 44.2327C39.9171 44.3298 39.901 44.4269 39.901 44.524V44.7505C39.901 44.8638 39.8848 44.9608 39.8848 45.0741C39.8848 45.1389 39.8848 45.2036 39.8686 45.2845C39.8686 45.3977 39.8525 45.511 39.8525 45.6404C39.8363 45.689 39.8363 45.7375 39.8363 45.7861C39.8201 45.9155 39.8041 46.0288 39.7879 46.1582C39.7879 46.2068 39.7879 46.2553 39.7717 46.3039C39.7556 46.4657 39.7233 46.6113 39.7072 46.7731V46.7893V46.8055C39.6749 46.9512 39.6426 47.113 39.6104 47.2586V47.3072C39.5781 47.4528 39.5458 47.5984 39.5136 47.744C39.5136 47.7603 39.4974 47.7926 39.4974 47.8088C39.4651 47.9544 39.4328 48.1 39.3845 48.2457V48.2942C39.3361 48.456 39.2876 48.6016 39.2554 48.7473C39.2392 48.7635 39.2392 48.7796 39.2392 48.7796C39.1908 48.9414 39.1424 49.1032 39.094 49.265C39.0294 49.4269 38.9811 49.5725 38.9165 49.7343C38.852 49.8961 38.8036 50.0579 38.739 50.2035C38.6745 50.3654 38.61 50.511 38.5454 50.6728H38.5292C38.4647 50.8184 38.4001 50.9802 38.3195 51.1259C38.3033 51.1744 38.2872 51.2068 38.2711 51.2391C38.2549 51.2553 38.2549 51.2715 38.2388 51.2877C37.1901 53.4074 35.6411 55.2682 33.7049 56.7245C33.5758 56.8054 33.4467 56.9025 33.3176 56.9995C33.2854 57.0319 33.237 57.0481 33.2047 57.0804C33.0917 57.1614 32.9788 57.2423 32.8497 57.3232L32.8981 57.4203H32.9143C33.1402 57.3879 33.3661 57.3555 33.592 57.3232H33.6081C34.0276 57.2584 34.4471 57.1775 34.8667 57.0966C34.9796 57.0804 35.1087 57.0481 35.2216 57.0157C35.3023 56.9995 35.3668 56.9834 35.4475 56.9672C35.5605 56.951 35.6734 56.9186 35.7864 56.9024C35.8832 56.8701 35.98 56.8539 36.0768 56.8215C37.6903 56.4332 39.2554 55.8992 40.7559 55.2682C38.1905 58.7794 34.7537 61.6111 30.7361 63.4719C32.5916 63.3425 34.4471 63.035 36.2381 62.5172C42.7405 60.5917 48.2103 56.2066 51.4857 50.3006C50.8242 54.0384 49.3398 57.5982 47.1454 60.705C48.7105 59.6694 50.1465 58.472 51.4535 57.1128C55.0677 53.3264 57.4396 48.5207 58.2463 43.359C58.7949 45.9156 58.9563 48.5531 58.7142 51.1582C70.3637 34.8639 59.6823 17.971 55.2129 13.5213C55.1967 13.4889 55.1807 13.4727 55.1807 13.4404C55.1645 13.4566 55.1645 13.4566 55.1645 13.4727C55.1645 13.4565 55.1645 13.4565 55.1483 13.4404C55.1483 13.6345 55.1322 13.8287 55.1161 14.0229C55.0677 14.395 55.0193 14.751 54.9547 15.107C54.8741 15.463 54.7773 15.8189 54.6805 16.1749C54.5675 16.5147 54.4384 16.8707 54.2932 17.2105C54.148 17.5341 53.9866 17.8739 53.8092 18.1976C53.6317 18.505 53.4381 18.8286 53.2283 19.1199C53.0185 19.4273 52.7927 19.7186 52.5668 19.9936C52.3247 20.2849 52.0666 20.5438 51.8084 20.8027C51.6471 20.9483 51.5019 21.0778 51.3405 21.2072C51.2114 21.3205 51.0985 21.4176 50.9694 21.5308C50.679 21.7574 50.3885 21.9677 50.0658 22.1619C49.7593 22.3561 49.4366 22.5502 49.1139 22.712C48.775 22.8739 48.4362 23.0195 48.0974 23.1651C47.7585 23.2946 47.4036 23.4078 47.0486 23.5049C46.6936 23.602 46.3225 23.6829 45.9675 23.7476C45.5964 23.8124 45.2253 23.8447 44.8704 23.8771C44.6122 23.8933 44.354 23.9094 44.0959 23.9094C43.7248 23.9094 43.3537 23.8771 42.9987 23.8447C42.6276 23.8123 42.2565 23.7638 41.9015 23.6828C41.5304 23.6181 41.1754 23.521 40.8205 23.4078H40.8043C41.1593 23.3754 41.5142 23.343 41.8692 23.2783C42.2403 23.2136 42.5953 23.1327 42.9503 23.0356C43.3052 22.9385 43.6602 22.8253 43.999 22.6958C44.354 22.5664 44.6928 22.4046 45.0156 22.2427C45.3544 22.0809 45.661 21.9029 45.9837 21.7088C46.2902 21.4984 46.5968 21.2881 46.8872 21.0615C47.1776 20.835 47.4519 20.5923 47.7101 20.3334C47.9844 20.0907 48.2264 19.8156 48.4684 19.5405C48.7105 19.2493 48.9364 18.958 49.1461 18.6667C49.1784 18.6182 49.2107 18.5535 49.2429 18.5049C49.4043 18.246 49.5656 17.9871 49.7108 17.7282C49.8883 17.4046 50.0497 17.081 50.1949 16.7412C50.3401 16.4014 50.4692 16.0616 50.5821 15.7056C50.6951 15.3658 50.7758 15.0098 50.8564 14.6539C50.921 14.2817 50.9855 13.9257 51.0178 13.5697C51.05 13.1976 51.0823 12.8254 51.0823 12.4694C51.0823 12.2105 51.0662 11.9516 51.0501 11.6928C51.0179 11.3206 50.9694 10.9646 50.921 10.6086C50.8565 10.2365 50.7758 9.88049 50.679 9.5245C50.5661 9.18471 50.4531 8.82872 50.324 8.48893C50.1949 8.14912 50.0336 7.80932 49.8722 7.4857C49.6948 7.16208 49.5173 6.83846 49.3237 6.53103C49.1139 6.22359 48.9041 5.93233 48.6782 5.64107C48.4362 5.36599 48.1942 5.09092 47.936 4.81584C47.807 4.6864 47.6617 4.54077 47.5165 4.41132C46.7905 3.84498 46.0321 3.31101 45.2738 2.82558C45.1608 2.76084 45.064 2.71232 44.9511 2.66377C44.4186 2.32397 43.9184 2.14589 43.4182 1.98408Z" fill="#E0234E"/>
<path d="M15.4981 79.9091V93H13.964L6.83052 82.7216H6.70268V93H5.11745V79.9091H6.65154L13.8106 90.2131H13.9385V79.9091H15.4981ZM22.5821 93.2045C21.6361 93.2045 20.82 92.9957 20.134 92.5781C19.4521 92.1562 18.9259 91.5682 18.5551 90.8139C18.1887 90.0554 18.0054 89.1733 18.0054 88.1676C18.0054 87.1619 18.1887 86.2756 18.5551 85.5085C18.9259 84.7372 19.4415 84.1364 20.102 83.706C20.7668 83.2713 21.5423 83.054 22.4287 83.054C22.9401 83.054 23.445 83.1392 23.9436 83.3097C24.4422 83.4801 24.896 83.7571 25.3051 84.1406C25.7142 84.5199 26.0402 85.0227 26.2831 85.6491C26.526 86.2756 26.6475 87.0469 26.6475 87.9631V88.6023H19.0793V87.2983H25.1134C25.1134 86.7443 25.0026 86.25 24.781 85.8153C24.5637 85.3807 24.2526 85.0376 23.8477 84.7862C23.4472 84.5348 22.9742 84.4091 22.4287 84.4091C21.8279 84.4091 21.308 84.5582 20.8691 84.8565C20.4344 85.1506 20.0999 85.5341 19.8655 86.0071C19.6311 86.4801 19.5139 86.9872 19.5139 87.5284V88.3977C19.5139 89.1392 19.6418 89.7678 19.8975 90.2834C20.1574 90.7947 20.5175 91.1847 20.9777 91.4531C21.4379 91.7173 21.9727 91.8494 22.5821 91.8494C22.9784 91.8494 23.3364 91.794 23.656 91.6832C23.9798 91.5682 24.259 91.3977 24.4933 91.1719C24.7277 90.9418 24.9088 90.6562 25.0367 90.3153L26.4941 90.7244C26.3406 91.2188 26.0828 91.6534 25.7206 92.0284C25.3584 92.3991 24.911 92.6889 24.3783 92.8977C23.8456 93.1023 23.2469 93.2045 22.5821 93.2045ZM35.8968 85.3807L34.5416 85.7642C34.4564 85.5384 34.3307 85.3189 34.1645 85.1058C34.0026 84.8885 33.781 84.7095 33.4997 84.5689C33.2185 84.4283 32.8584 84.358 32.4195 84.358C31.8186 84.358 31.3179 84.4964 30.9173 84.7734C30.521 85.0462 30.3229 85.3935 30.3229 85.8153C30.3229 86.1903 30.4593 86.4865 30.732 86.7038C31.0047 86.9212 31.4308 87.1023 32.0104 87.2472L33.4678 87.6051C34.3456 87.8182 34.9997 88.1442 35.4301 88.5831C35.8605 89.0178 36.0757 89.5781 36.0757 90.2642C36.0757 90.8267 35.9138 91.3295 35.5899 91.7727C35.2703 92.2159 34.8229 92.5653 34.2476 92.821C33.6723 93.0767 33.0033 93.2045 32.2405 93.2045C31.2391 93.2045 30.4102 92.9872 29.754 92.5526C29.0977 92.1179 28.6823 91.483 28.5075 90.6477L29.9394 90.2898C30.0757 90.8182 30.3335 91.2145 30.7128 91.4787C31.0963 91.7429 31.597 91.875 32.2149 91.875C32.9181 91.875 33.4763 91.7259 33.8896 91.4276C34.3073 91.125 34.5161 90.7628 34.5161 90.3409C34.5161 90 34.3968 89.7145 34.1581 89.4844C33.9195 89.25 33.553 89.0753 33.0587 88.9602L31.4223 88.5767C30.5232 88.3636 29.8627 88.0334 29.4408 87.5859C29.0232 87.1342 28.8144 86.5696 28.8144 85.892C28.8144 85.3381 28.9699 84.848 29.281 84.4219C29.5963 83.9957 30.0246 83.6612 30.5658 83.4183C31.1112 83.1754 31.7291 83.054 32.4195 83.054C33.3911 83.054 34.1539 83.267 34.7078 83.6932C35.2661 84.1193 35.6624 84.6818 35.8968 85.3807ZM42.6164 83.1818V84.4602H37.5283V83.1818H42.6164ZM39.0113 80.8295H40.5198V90.1875C40.5198 90.6136 40.5816 90.9332 40.7052 91.1463C40.833 91.3551 40.9949 91.4957 41.191 91.5682C41.3912 91.6364 41.6022 91.6705 41.8238 91.6705C41.99 91.6705 42.1263 91.6619 42.2329 91.6449C42.3394 91.6236 42.4246 91.6065 42.4885 91.5938L42.7954 92.9489C42.6931 92.9872 42.5503 93.0256 42.3671 93.0639C42.1839 93.1065 41.9516 93.1278 41.6704 93.1278C41.2442 93.1278 40.8266 93.0362 40.4175 92.853C40.0127 92.6697 39.676 92.3906 39.4076 92.0156C39.1434 91.6406 39.0113 91.1676 39.0113 90.5966V80.8295ZM45.985 93.1023C45.6697 93.1023 45.3991 92.9893 45.1732 92.7635C44.9474 92.5376 44.8344 92.267 44.8344 91.9517C44.8344 91.6364 44.9474 91.3658 45.1732 91.1399C45.3991 90.9141 45.6697 90.8011 45.985 90.8011C46.3003 90.8011 46.5709 90.9141 46.7968 91.1399C47.0226 91.3658 47.1356 91.6364 47.1356 91.9517C47.1356 92.1605 47.0823 92.3523 46.9758 92.527C46.8735 92.7017 46.735 92.8423 46.5603 92.9489C46.3898 93.0511 46.1981 93.1023 45.985 93.1023ZM49.8426 83.1818H51.3511V93.7159C51.3511 94.321 51.2467 94.8452 51.0379 95.2884C50.8334 95.7315 50.5223 96.0746 50.1047 96.3175C49.6913 96.5604 49.1693 96.6818 48.5386 96.6818C48.4875 96.6818 48.4363 96.6818 48.3852 96.6818C48.3341 96.6818 48.2829 96.6818 48.2318 96.6818V95.2756C48.2829 95.2756 48.3298 95.2756 48.3724 95.2756C48.415 95.2756 48.4619 95.2756 48.5131 95.2756C48.9733 95.2756 49.3099 95.1392 49.523 94.8665C49.7361 94.598 49.8426 94.2145 49.8426 93.7159V83.1818ZM50.5841 81.5455C50.29 81.5455 50.0365 81.4453 49.8234 81.245C49.6146 81.0447 49.5102 80.804 49.5102 80.5227C49.5102 80.2415 49.6146 80.0007 49.8234 79.8004C50.0365 79.6001 50.29 79.5 50.5841 79.5C50.8781 79.5 51.1295 79.6001 51.3383 79.8004C51.5514 80.0007 51.6579 80.2415 51.6579 80.5227C51.6579 80.804 51.5514 81.0447 51.3383 81.245C51.1295 81.4453 50.8781 81.5455 50.5841 81.5455ZM61.0686 85.3807L59.7135 85.7642C59.6283 85.5384 59.5026 85.3189 59.3364 85.1058C59.1744 84.8885 58.9529 84.7095 58.6716 84.5689C58.3904 84.4283 58.0303 84.358 57.5914 84.358C56.9905 84.358 56.4898 84.4964 56.0892 84.7734C55.6929 85.0462 55.4948 85.3935 55.4948 85.8153C55.4948 86.1903 55.6311 86.4865 55.9039 86.7038C56.1766 86.9212 56.6027 87.1023 57.1823 87.2472L58.6396 87.6051C59.5175 87.8182 60.1716 88.1442 60.602 88.5831C61.0324 89.0178 61.2476 89.5781 61.2476 90.2642C61.2476 90.8267 61.0857 91.3295 60.7618 91.7727C60.4422 92.2159 59.9948 92.5653 59.4195 92.821C58.8442 93.0767 58.1752 93.2045 57.4124 93.2045C56.411 93.2045 55.5821 92.9872 54.9259 92.5526C54.2696 92.1179 53.8541 91.483 53.6794 90.6477L55.1112 90.2898C55.2476 90.8182 55.5054 91.2145 55.8847 91.4787C56.2682 91.7429 56.7689 91.875 57.3868 91.875C58.0899 91.875 58.6482 91.7259 59.0615 91.4276C59.4791 91.125 59.6879 90.7628 59.6879 90.3409C59.6879 90 59.5686 89.7145 59.33 89.4844C59.0914 89.25 58.7249 89.0753 58.2306 88.9602L56.5942 88.5767C55.695 88.3636 55.0345 88.0334 54.6127 87.5859C54.195 87.1342 53.9862 86.5696 53.9862 85.892C53.9862 85.3381 54.1418 84.848 54.4529 84.4219C54.7682 83.9957 55.1965 83.6612 55.7377 83.4183C56.2831 83.1754 56.901 83.054 57.5914 83.054C58.5629 83.054 59.3257 83.267 59.8797 83.6932C60.4379 84.1193 60.8343 84.6818 61.0686 85.3807Z" fill="#D1D5DB"/>
</g>
<defs>
<clipPath id="clip0_327_1902">
<rect width="66.0645" height="100" fill="white"/>
</clipPath>
</defs>
</svg>
