<svg width="90" height="100" viewBox="0 0 90 100" fill="none" xmlns="http://www.w3.org/2000/svg">
<g clip-path="url(#clip0_327_1870)">
<g clip-path="url(#clip1_327_1870)">
<path d="M74 0H16C14.3431 0 13 1.34315 13 3V61C13 62.6569 14.3431 64 16 64H74C75.6569 64 77 62.6569 77 61V3C77 1.34315 75.6569 0 74 0Z" fill="#3178C6"/>
<path fill-rule="evenodd" clip-rule="evenodd" d="M50.1311 49.734V56.747C51.2673 57.331 52.611 57.7695 54.1623 58.0615C55.7137 58.354 57.3488 58.5 59.0676 58.5C60.7428 58.5 62.3341 58.3395 63.8415 58.018C65.3495 57.6965 66.671 57.167 67.8075 56.429C68.9435 55.691 69.843 54.727 70.506 53.536C71.1685 52.3455 71.5 50.8735 71.5 49.1203C71.5 47.8493 71.3105 46.7353 70.932 45.7783C70.553 44.8214 70.007 43.9704 69.293 43.2252C68.5795 42.4801 67.7235 41.8117 66.726 41.22C65.728 40.6283 64.603 40.0694 63.35 39.5435C62.4324 39.1636 61.6094 38.7947 60.8811 38.4368C60.1527 38.0788 59.5337 37.7136 59.0239 37.341C58.514 36.9684 58.1208 36.574 57.844 36.1576C57.5673 35.7413 57.4288 35.27 57.4288 34.7441C57.4288 34.2619 57.5527 33.8273 57.8003 33.4402C58.048 33.053 58.3975 32.7206 58.8491 32.443C59.3006 32.1655 59.8542 31.95 60.5097 31.7966C61.1651 31.6431 61.8934 31.5664 62.6946 31.5664C63.2775 31.5664 63.8925 31.6103 64.541 31.6979C65.189 31.7856 65.841 31.9207 66.4965 32.1034C67.152 32.286 67.789 32.5161 68.4085 32.7937C69.0275 33.0713 69.599 33.3927 70.1235 33.7579V27.2054C69.06 26.7963 67.8985 26.4931 66.6385 26.2959C65.3785 26.0986 63.933 26 62.3013 26C60.6408 26 59.0676 26.1789 57.5818 26.5369C56.0961 26.8948 54.7887 27.4537 53.6598 28.2134C52.5309 28.9731 51.6387 29.941 50.9832 31.1171C50.3277 32.2932 50 33.6995 50 35.3358C50 37.4251 50.6009 39.2074 51.8026 40.683C53.0044 42.1587 54.8288 43.4079 57.2759 44.4305C58.2373 44.825 59.1332 45.2122 59.9634 45.592C60.7937 45.9719 61.5111 46.3664 62.1156 46.7755C62.7201 47.1846 63.197 47.6302 63.5465 48.1123C63.8965 48.5944 64.071 49.1423 64.071 49.7559C64.071 50.209 63.962 50.629 63.7435 51.016C63.525 51.403 63.1935 51.739 62.7492 52.024C62.3049 52.309 61.7514 52.532 61.0886 52.6925C60.4259 52.853 59.6502 52.9335 58.7617 52.9335C57.2467 52.9335 55.7465 52.667 54.2607 52.1335C52.7749 51.6005 51.3984 50.8005 50.1311 49.734ZM38.3513 32.2772H47.5V26.5H22V32.2772H31.104V58H38.3513V32.2772Z" fill="white"/>
</g>
<path d="M0.869318 81.3153V79.9091H10.6875V81.3153H6.57102V93H4.9858V81.3153H0.869318ZM12.7761 96.6818C12.5204 96.6818 12.2924 96.6605 12.0922 96.6179C11.8919 96.5795 11.7534 96.5412 11.6767 96.5028L12.0602 95.1733C12.4267 95.267 12.7505 95.3011 13.0318 95.2756C13.313 95.25 13.5623 95.1243 13.7797 94.8984C14.0012 94.6768 14.2037 94.3168 14.3869 93.8182L14.6681 93.0511L11.0375 83.1818H12.6738L15.3841 91.0057H15.4863L18.1966 83.1818H19.8329L15.6653 94.4318C15.4778 94.9389 15.2456 95.3587 14.9686 95.6911C14.6916 96.0277 14.3699 96.277 14.0034 96.4389C13.6412 96.6009 13.2321 96.6818 12.7761 96.6818ZM21.824 96.6818V83.1818H23.2814V84.7415H23.4604C23.5712 84.571 23.7246 84.3537 23.9206 84.0895C24.1209 83.821 24.4064 83.5824 24.7772 83.3736C25.1522 83.1605 25.6593 83.054 26.2985 83.054C27.1252 83.054 27.8539 83.2607 28.4846 83.674C29.1152 84.0874 29.6074 84.6733 29.9611 85.4318C30.3148 86.1903 30.4917 87.0852 30.4917 88.1165C30.4917 89.1562 30.3148 90.0575 29.9611 90.8203C29.6074 91.5788 29.1174 92.1669 28.4909 92.5845C27.8645 92.9979 27.1422 93.2045 26.324 93.2045C25.6934 93.2045 25.1884 93.1001 24.8091 92.8913C24.4299 92.6783 24.138 92.4375 23.9334 92.169C23.7289 91.8963 23.5712 91.6705 23.4604 91.4915H23.3326V96.6818H21.824ZM23.307 88.0909C23.307 88.8324 23.4157 89.4865 23.633 90.0533C23.8503 90.6158 24.1678 91.0568 24.5854 91.3764C25.003 91.6918 25.5144 91.8494 26.1195 91.8494C26.7502 91.8494 27.2765 91.6832 27.6983 91.3509C28.1245 91.0142 28.4441 90.5625 28.6571 89.9957C28.8745 89.4247 28.9831 88.7898 28.9831 88.0909C28.9831 87.4006 28.8766 86.7784 28.6635 86.2244C28.4547 85.6662 28.1373 85.2251 27.7111 84.9013C27.2892 84.5732 26.7587 84.4091 26.1195 84.4091C25.5059 84.4091 24.9902 84.5646 24.5726 84.8757C24.155 85.1825 23.8397 85.6129 23.6266 86.1669C23.4135 86.7166 23.307 87.358 23.307 88.0909ZM36.9093 93.2045C35.9632 93.2045 35.1472 92.9957 34.4611 92.5781C33.7793 92.1562 33.253 91.5682 32.8823 90.8139C32.5158 90.0554 32.3326 89.1733 32.3326 88.1676C32.3326 87.1619 32.5158 86.2756 32.8823 85.5085C33.253 84.7372 33.7686 84.1364 34.4292 83.706C35.0939 83.2713 35.8695 83.054 36.7559 83.054C37.2672 83.054 37.7722 83.1392 38.2708 83.3097C38.7694 83.4801 39.2232 83.7571 39.6323 84.1406C40.0414 84.5199 40.3674 85.0227 40.6103 85.6491C40.8532 86.2756 40.9746 87.0469 40.9746 87.9631V88.6023H33.4064V87.2983H39.4405C39.4405 86.7443 39.3297 86.25 39.1081 85.8153C38.8908 85.3807 38.5797 85.0376 38.1749 84.7862C37.7743 84.5348 37.3013 84.4091 36.7559 84.4091C36.155 84.4091 35.6351 84.5582 35.1962 84.8565C34.7615 85.1506 34.427 85.5341 34.1926 86.0071C33.9583 86.4801 33.8411 86.9872 33.8411 87.5284V88.3977C33.8411 89.1392 33.9689 89.7678 34.2246 90.2834C34.4846 90.7947 34.8446 91.1847 35.3049 91.4531C35.7651 91.7173 36.2999 91.8494 36.9093 91.8494C37.3056 91.8494 37.6635 91.794 37.9831 91.6832C38.307 91.5682 38.5861 91.3977 38.8205 91.1719C39.0549 90.9418 39.236 90.6562 39.3638 90.3153L40.8212 90.7244C40.6678 91.2188 40.41 91.6534 40.0478 92.0284C39.6855 92.3991 39.2381 92.6889 38.7054 92.8977C38.1728 93.1023 37.574 93.2045 36.9093 93.2045ZM50.2239 85.3807L48.8688 85.7642C48.7836 85.5384 48.6578 85.3189 48.4917 85.1058C48.3297 84.8885 48.1081 84.7095 47.8269 84.5689C47.5456 84.4283 47.1855 84.358 46.7466 84.358C46.1458 84.358 45.6451 84.4964 45.2445 84.7734C44.8482 85.0462 44.65 85.3935 44.65 85.8153C44.65 86.1903 44.7864 86.4865 45.0591 86.7038C45.3319 86.9212 45.758 87.1023 46.3375 87.2472L47.7949 87.6051C48.6728 87.8182 49.3269 88.1442 49.7573 88.5831C50.1877 89.0178 50.4029 89.5781 50.4029 90.2642C50.4029 90.8267 50.2409 91.3295 49.9171 91.7727C49.5975 92.2159 49.15 92.5653 48.5748 92.821C47.9995 93.0767 47.3304 93.2045 46.5676 93.2045C45.5662 93.2045 44.7374 92.9872 44.0811 92.5526C43.4249 92.1179 43.0094 91.483 42.8347 90.6477L44.2665 90.2898C44.4029 90.8182 44.6607 91.2145 45.04 91.4787C45.4235 91.7429 45.9242 91.875 46.5421 91.875C47.2452 91.875 47.8034 91.7259 48.2168 91.4276C48.6344 91.125 48.8432 90.7628 48.8432 90.3409C48.8432 90 48.7239 89.7145 48.4853 89.4844C48.2466 89.25 47.8801 89.0753 47.3858 88.9602L45.7495 88.5767C44.8503 88.3636 44.1898 88.0334 43.7679 87.5859C43.3503 87.1342 43.1415 86.5696 43.1415 85.892C43.1415 85.3381 43.2971 84.848 43.6081 84.4219C43.9235 83.9957 44.3517 83.6612 44.8929 83.4183C45.4384 83.1754 46.0563 83.054 46.7466 83.054C47.7182 83.054 48.481 83.267 49.035 83.6932C49.5932 84.1193 49.9895 84.6818 50.2239 85.3807ZM56.6623 93.2045C55.7418 93.2045 54.9492 92.9872 54.2844 92.5526C53.6197 92.1179 53.1083 91.5192 52.7504 90.7564C52.3924 89.9936 52.2134 89.1222 52.2134 88.142C52.2134 87.1449 52.3967 86.2649 52.7631 85.5021C53.1339 84.7351 53.6495 84.1364 54.31 83.706C54.9748 83.2713 55.7504 83.054 56.6367 83.054C57.3271 83.054 57.9492 83.1818 58.5032 83.4375C59.0572 83.6932 59.511 84.0511 59.8647 84.5114C60.2184 84.9716 60.4379 85.5085 60.5231 86.1222H59.0146C58.8995 85.6747 58.6438 85.2784 58.2475 84.9332C57.8555 84.5838 57.3271 84.4091 56.6623 84.4091C56.0742 84.4091 55.5586 84.5625 55.1154 84.8693C54.6765 85.1719 54.3335 85.6001 54.0863 86.1541C53.8434 86.7038 53.7219 87.3494 53.7219 88.0909C53.7219 88.8494 53.8413 89.5099 54.0799 90.0724C54.3228 90.6349 54.6637 91.0717 55.1026 91.3828C55.5458 91.6939 56.0657 91.8494 56.6623 91.8494C57.0543 91.8494 57.4102 91.7812 57.7298 91.6449C58.0494 91.5085 58.32 91.3125 58.5415 91.0568C58.7631 90.8011 58.9208 90.4943 59.0146 90.1364H60.5231C60.4379 90.7159 60.2269 91.2379 59.8903 91.7024C59.5579 92.1626 59.1168 92.5291 58.5671 92.8018C58.0217 93.0703 57.3867 93.2045 56.6623 93.2045ZM62.7283 93V83.1818H64.1857V84.6648H64.288C64.467 84.179 64.7908 83.7848 65.2596 83.4822C65.7283 83.1797 66.2567 83.0284 66.8448 83.0284C66.9556 83.0284 67.0941 83.0305 67.2603 83.0348C67.4265 83.0391 67.5522 83.0455 67.6374 83.054V84.5881C67.5863 84.5753 67.4691 84.5561 67.2859 84.5305C67.1069 84.5007 66.9173 84.4858 66.717 84.4858C66.2397 84.4858 65.8136 84.5859 65.4386 84.7862C65.0678 84.9822 64.7738 85.255 64.5565 85.6044C64.3434 85.9496 64.2369 86.3437 64.2369 86.7869V93H62.7283ZM69.4256 93V83.1818H70.9341V93H69.4256ZM70.1926 81.5455C69.8986 81.5455 69.6451 81.4453 69.432 81.245C69.2232 81.0447 69.1188 80.804 69.1188 80.5227C69.1188 80.2415 69.2232 80.0007 69.432 79.8004C69.6451 79.6001 69.8986 79.5 70.1926 79.5C70.4867 79.5 70.7381 79.6001 70.9469 79.8004C71.16 80.0007 71.2665 80.2415 71.2665 80.5227C71.2665 80.804 71.16 81.0447 70.9469 81.245C70.7381 81.4453 70.4867 81.5455 70.1926 81.5455ZM73.6971 96.6818V83.1818H75.1545V84.7415H75.3335C75.4442 84.571 75.5977 84.3537 75.7937 84.0895C75.994 83.821 76.2795 83.5824 76.6502 83.3736C77.0252 83.1605 77.5323 83.054 78.1715 83.054C78.9982 83.054 79.7269 83.2607 80.3576 83.674C80.9883 84.0874 81.4805 84.6733 81.8342 85.4318C82.1879 86.1903 82.3647 87.0852 82.3647 88.1165C82.3647 89.1562 82.1879 90.0575 81.8342 90.8203C81.4805 91.5788 80.9904 92.1669 80.364 92.5845C79.7376 92.9979 79.0153 93.2045 78.1971 93.2045C77.5664 93.2045 77.0614 93.1001 76.6822 92.8913C76.3029 92.6783 76.011 92.4375 75.8065 92.169C75.6019 91.8963 75.4442 91.6705 75.3335 91.4915H75.2056V96.6818H73.6971ZM75.18 88.0909C75.18 88.8324 75.2887 89.4865 75.506 90.0533C75.7234 90.6158 76.0408 91.0568 76.4585 91.3764C76.8761 91.6918 77.3874 91.8494 77.9925 91.8494C78.6232 91.8494 79.1495 91.6832 79.5714 91.3509C79.9975 91.0142 80.3171 90.5625 80.5302 89.9957C80.7475 89.4247 80.8562 88.7898 80.8562 88.0909C80.8562 87.4006 80.7496 86.7784 80.5366 86.2244C80.3278 85.6662 80.0103 85.2251 79.5842 84.9013C79.1623 84.5732 78.6317 84.4091 77.9925 84.4091C77.3789 84.4091 76.8633 84.5646 76.4457 84.8757C76.0281 85.1825 75.7127 85.6129 75.4996 86.1669C75.2866 86.7166 75.18 87.358 75.18 88.0909ZM88.9357 83.1818V84.4602H83.8477V83.1818H88.9357ZM85.3306 80.8295H86.8391V90.1875C86.8391 90.6136 86.9009 90.9332 87.0245 91.1463C87.1523 91.3551 87.3143 91.4957 87.5103 91.5682C87.7106 91.6364 87.9215 91.6705 88.1431 91.6705C88.3093 91.6705 88.4457 91.6619 88.5522 91.6449C88.6587 91.6236 88.744 91.6065 88.8079 91.5938L89.1147 92.9489C89.0124 92.9872 88.8697 93.0256 88.6864 93.0639C88.5032 93.1065 88.271 93.1278 87.9897 93.1278C87.5636 93.1278 87.146 93.0362 86.7369 92.853C86.332 92.6697 85.9954 92.3906 85.7269 92.0156C85.4627 91.6406 85.3306 91.1676 85.3306 90.5966V80.8295Z" fill="#D1D5DB"/>
</g>
<defs>
<clipPath id="clip0_327_1870">
<rect width="90" height="100" fill="white"/>
</clipPath>
<clipPath id="clip1_327_1870">
<rect width="64" height="64" fill="white" transform="translate(13)"/>
</clipPath>
</defs>
</svg>
