<svg width="52" height="100" viewBox="0 0 52 100" fill="none" xmlns="http://www.w3.org/2000/svg">
<g clip-path="url(#clip0_327_1930)">
<g clip-path="url(#clip1_327_1930)">
<path d="M26 32C26 29.1711 27.1238 26.458 29.1242 24.4576C31.1246 22.4572 33.8377 21.3334 36.6667 21.3334C39.4956 21.3334 42.2087 22.4572 44.2091 24.4576C46.2095 26.458 47.3333 29.1711 47.3333 32C47.3333 34.829 46.2095 37.5421 44.2091 39.5425C42.2087 41.5429 39.4956 42.6667 36.6667 42.6667C33.8377 42.6667 31.1246 41.5429 29.1242 39.5425C27.1238 37.5421 26 34.829 26 32Z" fill="#1ABCFE"/>
<path d="M4.6665 53.3333C4.6665 50.5043 5.79031 47.7912 7.7907 45.7908C9.79109 43.7904 12.5042 42.6666 15.3332 42.6666H25.9998V53.3333C25.9998 56.1623 24.876 58.8754 22.8756 60.8758C20.8753 62.8762 18.1621 64 15.3332 64C12.5042 64 9.79109 62.8762 7.7907 60.8758C5.79031 58.8754 4.6665 56.1623 4.6665 53.3333Z" fill="#0ACF83"/>
<path d="M26 0V21.3333H36.6667C39.4956 21.3333 42.2087 20.2095 44.2091 18.2091C46.2095 16.2087 47.3333 13.4956 47.3333 10.6667C47.3333 7.83769 46.2095 5.12458 44.2091 3.12419C42.2087 1.12381 39.4956 0 36.6667 0L26 0Z" fill="#FF7262"/>
<path d="M4.6665 10.6667C4.6665 13.4956 5.79031 16.2087 7.7907 18.2091C9.79109 20.2095 12.5042 21.3333 15.3332 21.3333H25.9998V0H15.3332C12.5042 0 9.79109 1.12381 7.7907 3.12419C5.79031 5.12458 4.6665 7.83769 4.6665 10.6667Z" fill="#F24E1E"/>
<path d="M4.6665 32C4.6665 34.829 5.79031 37.5421 7.7907 39.5425C9.79109 41.5429 12.5042 42.6667 15.3332 42.6667H25.9998V21.3334H15.3332C12.5042 21.3334 9.79109 22.4572 7.7907 24.4576C5.79031 26.458 4.6665 29.1711 4.6665 32Z" fill="#A259FF"/>
</g>
<path d="M1.58523 93V79.9091H9.43466V81.3153H3.17045V85.7386H8.84659V87.1449H3.17045V93H1.58523ZM11.9451 93V83.1818H13.4537V93H11.9451ZM12.7122 81.5455C12.4181 81.5455 12.1646 81.4453 11.9515 81.245C11.7427 81.0447 11.6383 80.804 11.6383 80.5227C11.6383 80.2415 11.7427 80.0007 11.9515 79.8004C12.1646 79.6001 12.4181 79.5 12.7122 79.5C13.0062 79.5 13.2576 79.6001 13.4664 79.8004C13.6795 80.0007 13.786 80.2415 13.786 80.5227C13.786 80.804 13.6795 81.0447 13.4664 81.245C13.2576 81.4453 13.0062 81.5455 12.7122 81.5455ZM20.1797 96.8864C19.451 96.8864 18.8246 96.7926 18.3004 96.6051C17.7763 96.4219 17.3395 96.179 16.9901 95.8764C16.6449 95.5781 16.37 95.2585 16.1655 94.9176L17.3672 94.0739C17.5036 94.2528 17.6761 94.4574 17.8849 94.6875C18.0938 94.9219 18.3793 95.1243 18.7415 95.2947C19.108 95.4695 19.5874 95.5568 20.1797 95.5568C20.9723 95.5568 21.6264 95.3651 22.142 94.9815C22.6577 94.598 22.9155 93.9972 22.9155 93.179V91.1847H22.7876C22.6768 91.3636 22.5192 91.5852 22.3146 91.8494C22.1143 92.1094 21.8246 92.3416 21.4453 92.5462C21.0703 92.7464 20.5632 92.8466 19.924 92.8466C19.1314 92.8466 18.4197 92.6591 17.7891 92.2841C17.1626 91.9091 16.6662 91.3636 16.2997 90.6477C15.9375 89.9318 15.7564 89.0625 15.7564 88.0398C15.7564 87.0341 15.9332 86.1584 16.2869 85.4126C16.6406 84.6626 17.1328 84.0831 17.7635 83.674C18.3942 83.2607 19.1229 83.054 19.9496 83.054C20.5888 83.054 21.0959 83.1605 21.4709 83.3736C21.8501 83.5824 22.1399 83.821 22.3402 84.0895C22.5447 84.3537 22.7024 84.571 22.8132 84.7415H22.9666V83.1818H24.424V93.2812C24.424 94.125 24.2322 94.8111 23.8487 95.3395C23.4695 95.8722 22.9581 96.2621 22.3146 96.5092C21.6754 96.7607 20.9638 96.8864 20.1797 96.8864ZM20.1286 91.4915C20.7337 91.4915 21.245 91.353 21.6626 91.076C22.0803 90.799 22.3977 90.4006 22.6151 89.8807C22.8324 89.3608 22.9411 88.7386 22.9411 88.0142C22.9411 87.3068 22.8345 86.6825 22.6214 86.1413C22.4084 85.6001 22.093 85.1761 21.6754 84.8693C21.2578 84.5625 20.7422 84.4091 20.1286 84.4091C19.4893 84.4091 18.9567 84.571 18.5305 84.8949C18.1087 85.2187 17.7912 85.6534 17.5781 86.1989C17.3693 86.7443 17.2649 87.3494 17.2649 88.0142C17.2649 88.696 17.3714 89.299 17.5845 89.8232C17.8018 90.343 18.1214 90.7521 18.5433 91.0504C18.9695 91.3445 19.4979 91.4915 20.1286 91.4915ZM27.1854 93V83.1818H28.6428V84.7159H28.7706C28.9751 84.1918 29.3054 83.7848 29.7614 83.495C30.2173 83.201 30.7649 83.054 31.4041 83.054C32.0518 83.054 32.5909 83.201 33.0213 83.495C33.456 83.7848 33.7947 84.1918 34.0376 84.7159H34.1399C34.3913 84.2088 34.7685 83.8061 35.2713 83.5078C35.7741 83.2053 36.3771 83.054 37.0803 83.054C37.9581 83.054 38.6761 83.3288 39.2344 83.8786C39.7926 84.424 40.0717 85.2741 40.0717 86.429V93H38.5632V86.429C38.5632 85.7045 38.3651 85.1868 37.9688 84.8757C37.5724 84.5646 37.1058 84.4091 36.5689 84.4091C35.8786 84.4091 35.3438 84.6179 34.9645 85.0355C34.5852 85.4489 34.3956 85.973 34.3956 86.608V93H32.8615V86.2756C32.8615 85.7173 32.6804 85.2678 32.3182 84.9268C31.956 84.5817 31.4893 84.4091 30.9183 84.4091C30.5263 84.4091 30.1598 84.5135 29.8189 84.7223C29.4822 84.9311 29.2095 85.2209 29.0007 85.5916C28.7962 85.9581 28.6939 86.3821 28.6939 86.8636V93H27.1854ZM45.7191 93.2301C45.0969 93.2301 44.5323 93.1129 44.0252 92.8786C43.5181 92.6399 43.1154 92.2969 42.8171 91.8494C42.5188 91.3977 42.3697 90.8523 42.3697 90.2131C42.3697 89.6506 42.4805 89.1946 42.7021 88.8452C42.9237 88.4915 43.2198 88.2145 43.5906 88.0142C43.9613 87.8139 44.3704 87.6648 44.8178 87.5668C45.2695 87.4645 45.7234 87.3835 46.1793 87.3239C46.7759 87.2472 47.2596 87.1896 47.6303 87.1513C48.0053 87.1087 48.2781 87.0384 48.4485 86.9403C48.6232 86.8423 48.7106 86.6719 48.7106 86.429V86.3778C48.7106 85.7472 48.538 85.2571 48.1928 84.9077C47.8519 84.5582 47.3342 84.3835 46.6396 84.3835C45.9194 84.3835 45.3548 84.5412 44.9457 84.8565C44.5366 85.1719 44.2489 85.5085 44.0827 85.8665L42.6509 85.3551C42.9066 84.7585 43.2475 84.294 43.6737 83.9616C44.104 83.625 44.5728 83.3906 45.0799 83.2585C45.5913 83.1222 46.0941 83.054 46.5884 83.054C46.9038 83.054 47.266 83.0923 47.6751 83.169C48.0884 83.2415 48.4869 83.3928 48.8704 83.6229C49.2582 83.853 49.5799 84.2003 49.8356 84.6648C50.0913 85.1293 50.2191 85.7514 50.2191 86.5312V93H48.7106V91.6705H48.6339C48.5316 91.8835 48.3612 92.1115 48.1225 92.3544C47.8839 92.5973 47.5664 92.804 47.1701 92.9744C46.7738 93.1449 46.2901 93.2301 45.7191 93.2301ZM45.9492 91.875C46.5458 91.875 47.0487 91.7578 47.4577 91.5234C47.8711 91.2891 48.1822 90.9865 48.391 90.6158C48.604 90.245 48.7106 89.8551 48.7106 89.446V88.0653C48.6467 88.142 48.506 88.2124 48.2887 88.2763C48.0756 88.3359 47.8285 88.3892 47.5472 88.4361C47.2702 88.4787 46.9996 88.517 46.7354 88.5511C46.4755 88.581 46.2646 88.6065 46.1026 88.6278C45.7106 88.679 45.3441 88.7621 45.0032 88.8771C44.6665 88.9879 44.3938 89.1562 44.185 89.3821C43.9805 89.6037 43.8782 89.9062 43.8782 90.2898C43.8782 90.8139 44.0721 91.2102 44.4599 91.4787C44.8519 91.7429 45.3484 91.875 45.9492 91.875Z" fill="#D1D5DB"/>
</g>
<defs>
<clipPath id="clip0_327_1930">
<rect width="52" height="100" fill="white"/>
</clipPath>
<clipPath id="clip1_327_1930">
<rect width="42.6667" height="64" fill="white" transform="translate(4.6665)"/>
</clipPath>
</defs>
</svg>
