<svg width="70" height="100" viewBox="0 0 70 100" fill="none" xmlns="http://www.w3.org/2000/svg">
<g clip-path="url(#clip0_327_1875)">
<g clip-path="url(#clip1_327_1875)">
<path d="M34.9091 38.7725C38.5815 38.7725 41.5585 35.7404 41.5585 32C41.5585 28.2597 38.5815 25.2275 34.9091 25.2275C31.2368 25.2275 28.2598 28.2597 28.2598 32C28.2598 35.7404 31.2368 38.7725 34.9091 38.7725Z" fill="#087EA4"/>
<path d="M34.9089 47.238C53.2705 47.238 68.1556 40.4157 68.1556 31.9999C68.1556 23.5842 53.2705 16.7618 34.9089 16.7618C16.5472 16.7618 1.66211 23.5842 1.66211 31.9999C1.66211 40.4157 16.5472 47.238 34.9089 47.238Z" stroke="#087EA4" stroke-width="3"/>
<path d="M21.9523 39.619C31.1331 55.8152 44.3765 65.5336 51.5323 61.3257C58.6881 57.1178 57.0464 40.5771 47.8656 24.3809C38.6847 8.18475 25.4413 -1.53366 18.2855 2.67422C11.1298 6.88211 12.7714 23.4228 21.9523 39.619Z" stroke="#087EA4" stroke-width="3"/>
<path d="M21.9521 24.3808C12.7713 40.577 11.1296 57.1177 18.2854 61.3256C25.4411 65.5335 38.6846 55.8151 47.8654 39.6189C57.0462 23.4228 58.6879 6.88205 51.5321 2.67416C44.3764 -1.53372 31.1329 8.18469 21.9521 24.3808Z" stroke="#087EA4" stroke-width="3"/>
</g>
<path d="M11.9944 93V79.9091H16.4177C17.4404 79.9091 18.2799 80.0838 18.9362 80.4332C19.5924 80.7784 20.0782 81.2536 20.3936 81.8587C20.7089 82.4638 20.8666 83.152 20.8666 83.9233C20.8666 84.6946 20.7089 85.3786 20.3936 85.9751C20.0782 86.5717 19.5945 87.0405 18.9426 87.3814C18.2906 87.718 17.4575 87.8864 16.4433 87.8864H12.8637V86.4545H16.3921C17.091 86.4545 17.6535 86.3523 18.0796 86.1477C18.51 85.9432 18.8211 85.6534 19.0129 85.2784C19.2089 84.8991 19.3069 84.4474 19.3069 83.9233C19.3069 83.3991 19.2089 82.9411 19.0129 82.549C18.8169 82.157 18.5036 81.8544 18.0732 81.6413C17.6428 81.424 17.074 81.3153 16.3666 81.3153H13.5796V93H11.9944ZM18.1563 87.1193L21.3779 93H19.537L16.3666 87.1193H18.1563ZM27.3145 93.2045C26.3685 93.2045 25.5525 92.9957 24.8664 92.5781C24.1846 92.1562 23.6583 91.5682 23.2876 90.8139C22.9211 90.0554 22.7378 89.1733 22.7378 88.1676C22.7378 87.1619 22.9211 86.2756 23.2876 85.5085C23.6583 84.7372 24.1739 84.1364 24.8344 83.706C25.4992 83.2713 26.2748 83.054 27.1611 83.054C27.6725 83.054 28.1775 83.1392 28.676 83.3097C29.1746 83.4801 29.6285 83.7571 30.0376 84.1406C30.4466 84.5199 30.7726 85.0227 31.0155 85.6491C31.2584 86.2756 31.3799 87.0469 31.3799 87.9631V88.6023H23.8117V87.2983H29.8458C29.8458 86.7443 29.735 86.25 29.5134 85.8153C29.2961 85.3807 28.985 85.0376 28.5802 84.7862C28.1796 84.5348 27.7066 84.4091 27.1611 84.4091C26.5603 84.4091 26.0404 84.5582 25.6015 84.8565C25.1668 85.1506 24.8323 85.5341 24.5979 86.0071C24.3635 86.4801 24.2464 86.9872 24.2464 87.5284V88.3977C24.2464 89.1392 24.3742 89.7678 24.6299 90.2834C24.8898 90.7947 25.2499 91.1847 25.7101 91.4531C26.1704 91.7173 26.7052 91.8494 27.3145 91.8494C27.7108 91.8494 28.0688 91.794 28.3884 91.6832C28.7123 91.5682 28.9914 91.3977 29.2258 91.1719C29.4601 90.9418 29.6412 90.6562 29.7691 90.3153L31.2265 90.7244C31.0731 91.2188 30.8153 91.6534 30.453 92.0284C30.0908 92.3991 29.6434 92.6889 29.1107 92.8977C28.578 93.1023 27.9793 93.2045 27.3145 93.2045ZM36.5638 93.2301C35.9417 93.2301 35.377 93.1129 34.8699 92.8786C34.3628 92.6399 33.9601 92.2969 33.6618 91.8494C33.3635 91.3977 33.2144 90.8523 33.2144 90.2131C33.2144 89.6506 33.3252 89.1946 33.5468 88.8452C33.7684 88.4915 34.0645 88.2145 34.4353 88.0142C34.806 87.8139 35.2151 87.6648 35.6626 87.5668C36.1143 87.4645 36.5681 87.3835 37.0241 87.3239C37.6206 87.2472 38.1043 87.1896 38.4751 87.1513C38.8501 87.1087 39.1228 87.0384 39.2932 86.9403C39.468 86.8423 39.5553 86.6719 39.5553 86.429V86.3778C39.5553 85.7472 39.3827 85.2571 39.0376 84.9077C38.6966 84.5582 38.1789 84.3835 37.4843 84.3835C36.7641 84.3835 36.1995 84.5412 35.7904 84.8565C35.3813 85.1719 35.0937 85.5085 34.9275 85.8665L33.4956 85.3551C33.7513 84.7585 34.0922 84.294 34.5184 83.9616C34.9488 83.625 35.4175 83.3906 35.9246 83.2585C36.436 83.1222 36.9388 83.054 37.4332 83.054C37.7485 83.054 38.1107 83.0923 38.5198 83.169C38.9332 83.2415 39.3316 83.3928 39.7151 83.6229C40.1029 83.853 40.4246 84.2003 40.6803 84.6648C40.936 85.1293 41.0638 85.7514 41.0638 86.5312V93H39.5553V91.6705H39.4786C39.3763 91.8835 39.2059 92.1115 38.9672 92.3544C38.7286 92.5973 38.4111 92.804 38.0148 92.9744C37.6185 93.1449 37.1349 93.2301 36.5638 93.2301ZM36.7939 91.875C37.3905 91.875 37.8934 91.7578 38.3025 91.5234C38.7158 91.2891 39.0269 90.9865 39.2357 90.6158C39.4488 90.245 39.5553 89.8551 39.5553 89.446V88.0653C39.4914 88.142 39.3508 88.2124 39.1334 88.2763C38.9204 88.3359 38.6732 88.3892 38.392 88.4361C38.115 88.4787 37.8444 88.517 37.5802 88.5511C37.3202 88.581 37.1093 88.6065 36.9474 88.6278C36.5553 88.679 36.1888 88.7621 35.8479 88.8771C35.5113 88.9879 35.2385 89.1562 35.0297 89.3821C34.8252 89.6037 34.7229 89.9062 34.7229 90.2898C34.7229 90.8139 34.9168 91.2102 35.3046 91.4787C35.6966 91.7429 36.1931 91.875 36.7939 91.875ZM47.8058 93.2045C46.8854 93.2045 46.0928 92.9872 45.428 92.5526C44.7632 92.1179 44.2519 91.5192 43.8939 90.7564C43.536 89.9936 43.357 89.1222 43.357 88.142C43.357 87.1449 43.5402 86.2649 43.9067 85.5021C44.2774 84.7351 44.7931 84.1364 45.4536 83.706C46.1183 83.2713 46.8939 83.054 47.7803 83.054C48.4706 83.054 49.0928 83.1818 49.6468 83.4375C50.2007 83.6932 50.6546 84.0511 51.0083 84.5114C51.3619 84.9716 51.5814 85.5085 51.6666 86.1222H50.1581C50.0431 85.6747 49.7874 85.2784 49.3911 84.9332C48.999 84.5838 48.4706 84.4091 47.8058 84.4091C47.2178 84.4091 46.7021 84.5625 46.259 84.8693C45.82 85.1719 45.477 85.6001 45.2298 86.1541C44.9869 86.7038 44.8655 87.3494 44.8655 88.0909C44.8655 88.8494 44.9848 89.5099 45.2235 90.0724C45.4664 90.6349 45.8073 91.0717 46.2462 91.3828C46.6894 91.6939 47.2093 91.8494 47.8058 91.8494C48.1979 91.8494 48.5537 91.7812 48.8733 91.6449C49.1929 91.5085 49.4635 91.3125 49.6851 91.0568C49.9067 90.8011 50.0644 90.4943 50.1581 90.1364H51.6666C51.5814 90.7159 51.3705 91.2379 51.0338 91.7024C50.7014 92.1626 50.2604 92.5291 49.7107 92.8018C49.1652 93.0703 48.5303 93.2045 47.8058 93.2045ZM58.1418 83.1818V84.4602H53.0537V83.1818H58.1418ZM54.5367 80.8295H56.0452V90.1875C56.0452 90.6136 56.107 90.9332 56.2306 91.1463C56.3584 91.3551 56.5203 91.4957 56.7164 91.5682C56.9166 91.6364 57.1276 91.6705 57.3492 91.6705C57.5154 91.6705 57.6517 91.6619 57.7583 91.6449C57.8648 91.6236 57.95 91.6065 58.0139 91.5938L58.3208 92.9489C58.2185 92.9872 58.0757 93.0256 57.8925 93.0639C57.7093 93.1065 57.477 93.1278 57.1958 93.1278C56.7696 93.1278 56.352 93.0362 55.9429 92.853C55.5381 92.6697 55.2014 92.3906 54.933 92.0156C54.6688 91.6406 54.5367 91.1676 54.5367 90.5966V80.8295Z" fill="#D1D5DB"/>
</g>
<defs>
<clipPath id="clip0_327_1875">
<rect width="69.8182" height="100" fill="white"/>
</clipPath>
<clipPath id="clip1_327_1875">
<rect width="69.8182" height="64" fill="white"/>
</clipPath>
</defs>
</svg>
