<svg width="86" height="100" viewBox="0 0 86 100" fill="none" xmlns="http://www.w3.org/2000/svg">
<g clip-path="url(#clip0_327_1898)">
<g clip-path="url(#clip1_327_1898)">
<path d="M75 49.59C72.672 50.182 71.232 49.616 69.94 47.676L60.752 34.964L59.424 33.204L48.694 47.718C47.468 49.464 46.182 50.224 43.894 49.606L57.634 31.162L44.842 14.502C47.042 14.074 48.562 14.292 49.912 16.262L59.442 29.132L69.042 16.332C70.272 14.586 71.594 13.922 73.802 14.566L68.842 21.142L62.122 29.892C61.322 30.892 61.432 31.576 62.168 32.542L75 49.59ZM11.016 30.854L12.14 25.326C15.2 14.386 27.74 9.84002 36.388 16.6C41.442 20.576 42.698 26.2 42.448 32.5H13.96C13.532 43.84 21.694 50.684 32.1 47.192C35.75 45.966 37.9 43.108 38.976 39.532C39.522 37.74 40.426 37.46 42.11 37.972C41.25 42.444 39.31 46.18 35.21 48.518C29.084 52.018 20.34 50.886 15.74 46.022C13 43.2 11.868 39.624 11.36 35.8C11.28 35.168 11.12 34.566 11 33.96C11.0107 32.9254 11.016 31.8907 11.016 30.856V30.854ZM14.012 30.094H39.756C39.588 21.894 34.482 16.07 27.504 16.02C19.844 15.96 14.344 21.646 14.012 30.094Z" fill="#F9FAFB"/>
</g>
<path d="M1.58523 93V79.9091H9.4858V81.3153H3.17045V85.7386H9.0767V87.1449H3.17045V91.5938H9.58807V93H1.58523ZM13.2635 83.1818L15.6158 87.196L17.968 83.1818H19.7067L16.5362 88.0909L19.7067 93H17.968L15.6158 89.1903L13.2635 93H11.5249L14.6442 88.0909L11.5249 83.1818H13.2635ZM21.8592 96.6818V83.1818H23.3166V84.7415H23.4956C23.6064 84.571 23.7598 84.3537 23.9558 84.0895C24.1561 83.821 24.4416 83.5824 24.8123 83.3736C25.1873 83.1605 25.6944 83.054 26.3336 83.054C27.1603 83.054 27.889 83.2607 28.5197 83.674C29.1504 84.0874 29.6426 84.6733 29.9963 85.4318C30.35 86.1903 30.5268 87.0852 30.5268 88.1165C30.5268 89.1562 30.35 90.0575 29.9963 90.8203C29.6426 91.5788 29.1525 92.1669 28.5261 92.5845C27.8997 92.9979 27.1774 93.2045 26.3592 93.2045C25.7285 93.2045 25.2235 93.1001 24.8443 92.8913C24.465 92.6783 24.1731 92.4375 23.9686 92.169C23.764 91.8963 23.6064 91.6705 23.4956 91.4915H23.3677V96.6818H21.8592ZM23.3422 88.0909C23.3422 88.8324 23.4508 89.4865 23.6681 90.0533C23.8855 90.6158 24.2029 91.0568 24.6206 91.3764C25.0382 91.6918 25.5495 91.8494 26.1547 91.8494C26.7853 91.8494 27.3116 91.6832 27.7335 91.3509C28.1596 91.0142 28.4792 90.5625 28.6923 89.9957C28.9096 89.4247 29.0183 88.7898 29.0183 88.0909C29.0183 87.4006 28.9118 86.7784 28.6987 86.2244C28.4899 85.6662 28.1724 85.2251 27.7463 84.9013C27.3244 84.5732 26.7939 84.4091 26.1547 84.4091C25.541 84.4091 25.0254 84.5646 24.6078 84.8757C24.1902 85.1825 23.8748 85.6129 23.6618 86.1669C23.4487 86.7166 23.3422 87.358 23.3422 88.0909ZM32.8279 93V83.1818H34.2853V84.6648H34.3876C34.5666 84.179 34.8904 83.7848 35.3592 83.4822C35.8279 83.1797 36.3564 83.0284 36.9444 83.0284C37.0552 83.0284 37.1937 83.0305 37.3599 83.0348C37.5261 83.0391 37.6518 83.0455 37.737 83.054V84.5881C37.6859 84.5753 37.5687 84.5561 37.3855 84.5305C37.2065 84.5007 37.0169 84.4858 36.8166 84.4858C36.3393 84.4858 35.9132 84.5859 35.5382 84.7862C35.1674 84.9822 34.8734 85.255 34.6561 85.6044C34.443 85.9496 34.3365 86.3437 34.3365 86.7869V93H32.8279ZM43.3429 93.2045C42.3968 93.2045 41.5808 92.9957 40.8947 92.5781C40.2129 92.1562 39.6866 91.5682 39.3159 90.8139C38.9494 90.0554 38.7662 89.1733 38.7662 88.1676C38.7662 87.1619 38.9494 86.2756 39.3159 85.5085C39.6866 84.7372 40.2022 84.1364 40.8627 83.706C41.5275 83.2713 42.3031 83.054 43.1895 83.054C43.7008 83.054 44.2058 83.1392 44.7044 83.3097C45.2029 83.4801 45.6568 83.7571 46.0659 84.1406C46.475 84.5199 46.801 85.0227 47.0439 85.6491C47.2868 86.2756 47.4082 87.0469 47.4082 87.9631V88.6023H39.84V87.2983H45.8741C45.8741 86.7443 45.7633 86.25 45.5417 85.8153C45.3244 85.3807 45.0133 85.0376 44.6085 84.7862C44.2079 84.5348 43.7349 84.4091 43.1895 84.4091C42.5886 84.4091 42.0687 84.5582 41.6298 84.8565C41.1951 85.1506 40.8606 85.5341 40.6262 86.0071C40.3919 86.4801 40.2747 86.9872 40.2747 87.5284V88.3977C40.2747 89.1392 40.4025 89.7678 40.6582 90.2834C40.9181 90.7947 41.2782 91.1847 41.7385 91.4531C42.1987 91.7173 42.7335 91.8494 43.3429 91.8494C43.7392 91.8494 44.0971 91.794 44.4167 91.6832C44.7406 91.5682 45.0197 91.3977 45.2541 91.1719C45.4885 90.9418 45.6696 90.6562 45.7974 90.3153L47.2548 90.7244C47.1014 91.2188 46.8436 91.6534 46.4814 92.0284C46.1191 92.3991 45.6717 92.6889 45.139 92.8977C44.6064 93.1023 44.0076 93.2045 43.3429 93.2045ZM56.6575 85.3807L55.3024 85.7642C55.2172 85.5384 55.0914 85.3189 54.9252 85.1058C54.7633 84.8885 54.5417 84.7095 54.2605 84.5689C53.9792 84.4283 53.6191 84.358 53.1802 84.358C52.5794 84.358 52.0787 84.4964 51.6781 84.7734C51.2818 85.0462 51.0836 85.3935 51.0836 85.8153C51.0836 86.1903 51.22 86.4865 51.4927 86.7038C51.7654 86.9212 52.1916 87.1023 52.7711 87.2472L54.2285 87.6051C55.1064 87.8182 55.7605 88.1442 56.1909 88.5831C56.6213 89.0178 56.8365 89.5781 56.8365 90.2642C56.8365 90.8267 56.6745 91.3295 56.3507 91.7727C56.0311 92.2159 55.5836 92.5653 55.0083 92.821C54.4331 93.0767 53.764 93.2045 53.0012 93.2045C51.9998 93.2045 51.171 92.9872 50.5147 92.5526C49.8585 92.1179 49.443 91.483 49.2683 90.6477L50.7001 90.2898C50.8365 90.8182 51.0943 91.2145 51.4735 91.4787C51.8571 91.7429 52.3578 91.875 52.9757 91.875C53.6788 91.875 54.237 91.7259 54.6504 91.4276C55.068 91.125 55.2768 90.7628 55.2768 90.3409C55.2768 90 55.1575 89.7145 54.9189 89.4844C54.6802 89.25 54.3137 89.0753 53.8194 88.9602L52.1831 88.5767C51.2839 88.3636 50.6234 88.0334 50.2015 87.5859C49.7839 87.1342 49.5751 86.5696 49.5751 85.892C49.5751 85.3381 49.7306 84.848 50.0417 84.4219C50.3571 83.9957 50.7853 83.6612 51.3265 83.4183C51.872 83.1754 52.4899 83.054 53.1802 83.054C54.1518 83.054 54.9146 83.267 55.4686 83.6932C56.0268 84.1193 56.4231 84.6818 56.6575 85.3807ZM66.0618 85.3807L64.7067 85.7642C64.6214 85.5384 64.4957 85.3189 64.3295 85.1058C64.1676 84.8885 63.946 84.7095 63.6648 84.5689C63.3835 84.4283 63.0234 84.358 62.5845 84.358C61.9837 84.358 61.483 84.4964 61.0824 84.7734C60.6861 85.0462 60.4879 85.3935 60.4879 85.8153C60.4879 86.1903 60.6243 86.4865 60.897 86.7038C61.1697 86.9212 61.5959 87.1023 62.1754 87.2472L63.6328 87.6051C64.5107 87.8182 65.1648 88.1442 65.5952 88.5831C66.0256 89.0178 66.2408 89.5781 66.2408 90.2642C66.2408 90.8267 66.0788 91.3295 65.755 91.7727C65.4354 92.2159 64.9879 92.5653 64.4126 92.821C63.8374 93.0767 63.1683 93.2045 62.4055 93.2045C61.4041 93.2045 60.5753 92.9872 59.919 92.5526C59.2628 92.1179 58.8473 91.483 58.6726 90.6477L60.1044 90.2898C60.2408 90.8182 60.4986 91.2145 60.8778 91.4787C61.2614 91.7429 61.7621 91.875 62.38 91.875C63.0831 91.875 63.6413 91.7259 64.0547 91.4276C64.4723 91.125 64.6811 90.7628 64.6811 90.3409C64.6811 90 64.5618 89.7145 64.3232 89.4844C64.0845 89.25 63.718 89.0753 63.2237 88.9602L61.5874 88.5767C60.6882 88.3636 60.0277 88.0334 59.6058 87.5859C59.1882 87.1342 58.9794 86.5696 58.9794 85.892C58.9794 85.3381 59.1349 84.848 59.446 84.4219C59.7614 83.9957 60.1896 83.6612 60.7308 83.4183C61.2763 83.1754 61.8942 83.054 62.5845 83.054C63.5561 83.054 64.3189 83.267 64.8729 83.6932C65.4311 84.1193 65.8274 84.6818 66.0618 85.3807ZM69.611 93.1023C69.2956 93.1023 69.025 92.9893 68.7992 92.7635C68.5733 92.5376 68.4604 92.267 68.4604 91.9517C68.4604 91.6364 68.5733 91.3658 68.7992 91.1399C69.025 90.9141 69.2956 90.8011 69.611 90.8011C69.9263 90.8011 70.1969 90.9141 70.4228 91.1399C70.6486 91.3658 70.7615 91.6364 70.7615 91.9517C70.7615 92.1605 70.7083 92.3523 70.6017 92.527C70.4995 92.7017 70.361 92.8423 70.1863 92.9489C70.0158 93.0511 69.824 93.1023 69.611 93.1023ZM73.4686 83.1818H74.9771V93.7159C74.9771 94.321 74.8727 94.8452 74.6639 95.2884C74.4593 95.7315 74.1483 96.0746 73.7306 96.3175C73.3173 96.5604 72.7953 96.6818 72.1646 96.6818C72.1135 96.6818 72.0623 96.6818 72.0112 96.6818C71.96 96.6818 71.9089 96.6818 71.8578 96.6818V95.2756C71.9089 95.2756 71.9558 95.2756 71.9984 95.2756C72.041 95.2756 72.0879 95.2756 72.139 95.2756C72.5993 95.2756 72.9359 95.1392 73.149 94.8665C73.362 94.598 73.4686 94.2145 73.4686 93.7159V83.1818ZM74.21 81.5455C73.916 81.5455 73.6625 81.4453 73.4494 81.245C73.2406 81.0447 73.1362 80.804 73.1362 80.5227C73.1362 80.2415 73.2406 80.0007 73.4494 79.8004C73.6625 79.6001 73.916 79.5 74.21 79.5C74.5041 79.5 74.7555 79.6001 74.9643 79.8004C75.1774 80.0007 75.2839 80.2415 75.2839 80.5227C75.2839 80.804 75.1774 81.0447 74.9643 81.245C74.7555 81.4453 74.5041 81.5455 74.21 81.5455ZM84.6946 85.3807L83.3395 85.7642C83.2543 85.5384 83.1286 85.3189 82.9624 85.1058C82.8004 84.8885 82.5788 84.7095 82.2976 84.5689C82.0163 84.4283 81.6562 84.358 81.2173 84.358C80.6165 84.358 80.1158 84.4964 79.7152 84.7734C79.3189 85.0462 79.1207 85.3935 79.1207 85.8153C79.1207 86.1903 79.2571 86.4865 79.5298 86.7038C79.8026 86.9212 80.2287 87.1023 80.8082 87.2472L82.2656 87.6051C83.1435 87.8182 83.7976 88.1442 84.228 88.5831C84.6584 89.0178 84.8736 89.5781 84.8736 90.2642C84.8736 90.8267 84.7116 91.3295 84.3878 91.7727C84.0682 92.2159 83.6207 92.5653 83.0455 92.821C82.4702 93.0767 81.8011 93.2045 81.0384 93.2045C80.0369 93.2045 79.2081 92.9872 78.5518 92.5526C77.8956 92.1179 77.4801 91.483 77.3054 90.6477L78.7372 90.2898C78.8736 90.8182 79.1314 91.2145 79.5107 91.4787C79.8942 91.7429 80.3949 91.875 81.0128 91.875C81.7159 91.875 82.2741 91.7259 82.6875 91.4276C83.1051 91.125 83.3139 90.7628 83.3139 90.3409C83.3139 90 83.1946 89.7145 82.956 89.4844C82.7173 89.25 82.3509 89.0753 81.8565 88.9602L80.2202 88.5767C79.321 88.3636 78.6605 88.0334 78.2386 87.5859C77.821 87.1342 77.6122 86.5696 77.6122 85.892C77.6122 85.3381 77.7678 84.848 78.0788 84.4219C78.3942 83.9957 78.8224 83.6612 79.3636 83.4183C79.9091 83.1754 80.527 83.054 81.2173 83.054C82.1889 83.054 82.9517 83.267 83.5057 83.6932C84.0639 84.1193 84.4602 84.6818 84.6946 85.3807Z" fill="#D1D5DB"/>
</g>
<defs>
<clipPath id="clip0_327_1898">
<rect width="86" height="100" fill="white"/>
</clipPath>
<clipPath id="clip1_327_1898">
<rect width="64" height="64" fill="white" transform="translate(11)"/>
</clipPath>
</defs>
</svg>
