<svg width="64" height="100" viewBox="0 0 64 100" fill="none" xmlns="http://www.w3.org/2000/svg">
<g clip-path="url(#clip0_327_1883)">
<g clip-path="url(#clip1_327_1883)">
<mask id="mask0_327_1883" style="mask-type:alpha" maskUnits="userSpaceOnUse" x="0" y="0" width="64" height="64">
<path d="M32 64C49.6731 64 64 49.6731 64 32C64 14.3269 49.6731 0 32 0C14.3269 0 0 14.3269 0 32C0 49.6731 14.3269 64 32 64Z" fill="black"/>
</mask>
<g mask="url(#mask0_327_1883)">
<path d="M32.0002 62.9333C49.0842 62.9333 62.9336 49.084 62.9336 32C62.9336 14.916 49.0842 1.06665 32.0002 1.06665C14.9162 1.06665 1.06689 14.916 1.06689 32C1.06689 49.084 14.9162 62.9333 32.0002 62.9333Z" fill="black" stroke="white" stroke-width="6"/>
<path d="M53.1586 56.0071L24.584 19.2H19.2002V44.7893H23.5073V24.6697L49.7776 58.6115C50.963 57.8183 52.0923 56.9475 53.1586 56.0071Z" fill="url(#paint0_linear_327_1883)"/>
<path d="M45.1558 19.2H40.8892V44.8H45.1558V19.2Z" fill="url(#paint1_linear_327_1883)"/>
</g>
</g>
<path d="M14.4659 79.9091V93H12.9318L5.7983 82.7216H5.67045V93H4.08523V79.9091H5.61932L12.7784 90.2131H12.9062V79.9091H14.4659ZM21.5499 93.2045C20.6039 93.2045 19.7878 92.9957 19.1017 92.5781C18.4199 92.1562 17.8936 91.5682 17.5229 90.8139C17.1564 90.0554 16.9732 89.1733 16.9732 88.1676C16.9732 87.1619 17.1564 86.2756 17.5229 85.5085C17.8936 84.7372 18.4093 84.1364 19.0698 83.706C19.7346 83.2713 20.5101 83.054 21.3965 83.054C21.9078 83.054 22.4128 83.1392 22.9114 83.3097C23.41 83.4801 23.8638 83.7571 24.2729 84.1406C24.682 84.5199 25.008 85.0227 25.2509 85.6491C25.4938 86.2756 25.6152 87.0469 25.6152 87.9631V88.6023H18.0471V87.2983H24.0811C24.0811 86.7443 23.9703 86.25 23.7488 85.8153C23.5314 85.3807 23.2203 85.0376 22.8155 84.7862C22.415 84.5348 21.9419 84.4091 21.3965 84.4091C20.7956 84.4091 20.2757 84.5582 19.8368 84.8565C19.4022 85.1506 19.0676 85.5341 18.8333 86.0071C18.5989 86.4801 18.4817 86.9872 18.4817 87.5284V88.3977C18.4817 89.1392 18.6096 89.7678 18.8652 90.2834C19.1252 90.7947 19.4853 91.1847 19.9455 91.4531C20.4057 91.7173 20.9405 91.8494 21.5499 91.8494C21.9462 91.8494 22.3042 91.794 22.6238 91.6832C22.9476 91.5682 23.2267 91.3977 23.4611 91.1719C23.6955 90.9418 23.8766 90.6562 24.0044 90.3153L25.4618 90.7244C25.3084 91.2188 25.0506 91.6534 24.6884 92.0284C24.3262 92.3991 23.8787 92.6889 23.3461 92.8977C22.8134 93.1023 22.2147 93.2045 21.5499 93.2045ZM28.7713 83.1818L31.1236 87.196L33.4759 83.1818H35.2145L32.044 88.0909L35.2145 93H33.4759L31.1236 89.1903L28.7713 93H27.0327L30.152 88.0909L27.0327 83.1818H28.7713ZM41.6369 83.1818V84.4602H36.5488V83.1818H41.6369ZM38.0318 80.8295H39.5403V90.1875C39.5403 90.6136 39.6021 90.9332 39.7257 91.1463C39.8535 91.3551 40.0154 91.4957 40.2115 91.5682C40.4118 91.6364 40.6227 91.6705 40.8443 91.6705C41.0105 91.6705 41.1468 91.6619 41.2534 91.6449C41.3599 91.6236 41.4451 91.6065 41.5091 91.5938L41.8159 92.9489C41.7136 92.9872 41.5708 93.0256 41.3876 93.0639C41.2044 93.1065 40.9721 93.1278 40.6909 93.1278C40.2647 93.1278 39.8471 93.0362 39.438 92.853C39.0332 92.6697 38.6966 92.3906 38.4281 92.0156C38.1639 91.6406 38.0318 91.1676 38.0318 90.5966V80.8295ZM45.0055 93.1023C44.6902 93.1023 44.4196 92.9893 44.1937 92.7635C43.9679 92.5376 43.8549 92.267 43.8549 91.9517C43.8549 91.6364 43.9679 91.3658 44.1937 91.1399C44.4196 90.9141 44.6902 90.8011 45.0055 90.8011C45.3208 90.8011 45.5914 90.9141 45.8173 91.1399C46.0431 91.3658 46.1561 91.6364 46.1561 91.9517C46.1561 92.1605 46.1028 92.3523 45.9963 92.527C45.894 92.7017 45.7555 92.8423 45.5808 92.9489C45.4103 93.0511 45.2186 93.1023 45.0055 93.1023ZM48.8631 83.1818H50.3716V93.7159C50.3716 94.321 50.2672 94.8452 50.0584 95.2884C49.8539 95.7315 49.5428 96.0746 49.1252 96.3175C48.7118 96.5604 48.1898 96.6818 47.5591 96.6818C47.508 96.6818 47.4569 96.6818 47.4057 96.6818C47.3546 96.6818 47.3034 96.6818 47.2523 96.6818V95.2756C47.3034 95.2756 47.3503 95.2756 47.3929 95.2756C47.4355 95.2756 47.4824 95.2756 47.5336 95.2756C47.9938 95.2756 48.3304 95.1392 48.5435 94.8665C48.7566 94.598 48.8631 94.2145 48.8631 93.7159V83.1818ZM49.6046 81.5455C49.3105 81.5455 49.057 81.4453 48.8439 81.245C48.6351 81.0447 48.5307 80.804 48.5307 80.5227C48.5307 80.2415 48.6351 80.0007 48.8439 79.8004C49.057 79.6001 49.3105 79.5 49.6046 79.5C49.8986 79.5 50.15 79.6001 50.3588 79.8004C50.5719 80.0007 50.6784 80.2415 50.6784 80.5227C50.6784 80.804 50.5719 81.0447 50.3588 81.245C50.15 81.4453 49.8986 81.5455 49.6046 81.5455ZM60.0891 85.3807L58.734 85.7642C58.6488 85.5384 58.5231 85.3189 58.3569 85.1058C58.195 84.8885 57.9734 84.7095 57.6921 84.5689C57.4109 84.4283 57.0508 84.358 56.6119 84.358C56.011 84.358 55.5103 84.4964 55.1097 84.7734C54.7134 85.0462 54.5153 85.3935 54.5153 85.8153C54.5153 86.1903 54.6516 86.4865 54.9244 86.7038C55.1971 86.9212 55.6232 87.1023 56.2028 87.2472L57.6602 87.6051C58.538 87.8182 59.1921 88.1442 59.6225 88.5831C60.0529 89.0178 60.2681 89.5781 60.2681 90.2642C60.2681 90.8267 60.1062 91.3295 59.7823 91.7727C59.4627 92.2159 59.0153 92.5653 58.44 92.821C57.8647 93.0767 57.1957 93.2045 56.4329 93.2045C55.4315 93.2045 54.6026 92.9872 53.9464 92.5526C53.2901 92.1179 52.8746 91.483 52.6999 90.6477L54.1317 90.2898C54.2681 90.8182 54.5259 91.2145 54.9052 91.4787C55.2887 91.7429 55.7894 91.875 56.4073 91.875C57.1104 91.875 57.6687 91.7259 58.082 91.4276C58.4996 91.125 58.7085 90.7628 58.7085 90.3409C58.7085 90 58.5891 89.7145 58.3505 89.4844C58.1119 89.25 57.7454 89.0753 57.2511 88.9602L55.6147 88.5767C54.7156 88.3636 54.055 88.0334 53.6332 87.5859C53.2156 87.1342 53.0067 86.5696 53.0067 85.892C53.0067 85.3381 53.1623 84.848 53.4734 84.4219C53.7887 83.9957 54.217 83.6612 54.7582 83.4183C55.3036 83.1754 55.9215 83.054 56.6119 83.054C57.5835 83.054 58.3462 83.267 58.9002 83.6932C59.4585 84.1193 59.8548 84.6818 60.0891 85.3807Z" fill="#D1D5DB"/>
</g>
<defs>
<linearGradient id="paint0_linear_327_1883" x1="38.7558" y1="41.4222" x2="51.378" y2="57.0666" gradientUnits="userSpaceOnUse">
<stop stop-color="white"/>
<stop offset="1" stop-color="white" stop-opacity="0"/>
</linearGradient>
<linearGradient id="paint1_linear_327_1883" x1="43.0225" y1="19.2" x2="42.951" y2="38" gradientUnits="userSpaceOnUse">
<stop stop-color="white"/>
<stop offset="1" stop-color="white" stop-opacity="0"/>
</linearGradient>
<clipPath id="clip0_327_1883">
<rect width="64" height="100" fill="white"/>
</clipPath>
<clipPath id="clip1_327_1883">
<rect width="64" height="64" fill="white"/>
</clipPath>
</defs>
</svg>
