<svg width="65" height="100" viewBox="0 0 65 100" fill="none" xmlns="http://www.w3.org/2000/svg">
<g clip-path="url(#clip0_327_1893)">
<g clip-path="url(#clip1_327_1893)">
<path d="M32.5992 64C31.7413 64 30.9405 63.7668 30.1969 63.3586L22.5896 58.7517C21.4457 58.1102 22.0176 57.877 22.3608 57.7603C23.9052 57.2355 24.1911 57.1189 25.7927 56.1859C25.9643 56.0692 26.193 56.1275 26.3646 56.2442L32.1988 59.8014C32.4277 59.918 32.7136 59.918 32.8852 59.8014L55.7072 46.3307C55.936 46.214 56.0503 45.9808 56.0503 45.6892V18.806C56.0503 18.5145 55.936 18.2812 55.7072 18.1646L32.8852 4.75223C32.6564 4.63561 32.3704 4.63561 32.1988 4.75223L9.37689 18.1646C9.1481 18.2812 9.0337 18.5728 9.0337 18.806V45.6892C9.0337 45.9224 9.1481 46.214 9.37689 46.3307L15.6115 50.0045C18.9861 51.7539 21.1024 49.7129 21.1024 47.6719V21.1386C21.1024 20.7888 21.3885 20.4389 21.7888 20.4389H24.706C25.0491 20.4389 25.3923 20.7305 25.3923 21.1386V47.6719C25.3923 52.2788 22.9327 54.9613 18.6429 54.9613C17.3274 54.9613 16.2979 54.9613 13.3807 53.5034L7.37496 50.0045C5.88782 49.1297 4.97266 47.4969 4.97266 45.7475V18.8644C4.97266 17.115 5.88782 15.4822 7.37496 14.6074L30.1969 1.13672C31.6269 0.320313 33.5716 0.320313 35.0016 1.13672L57.8235 14.6074C59.3106 15.4822 60.2258 17.115 60.2258 18.8644V45.7475C60.2258 47.4969 59.3106 49.1297 57.8235 50.0045L35.0016 63.4752C34.3152 63.7668 33.4572 64 32.5992 64Z" fill="#5FA04E"/>
<path d="M39.6918 45.5142C29.6821 45.5142 27.623 40.849 27.623 36.8836C27.623 36.5337 27.909 36.1839 28.3094 36.1839H31.2837C31.6268 36.1839 31.9129 36.4171 31.9129 36.767C32.3704 39.8576 33.686 41.3738 39.749 41.3738C44.5536 41.3738 46.6127 40.2658 46.6127 37.6417C46.6127 36.1255 46.0407 35.0175 38.5478 34.2594C32.3132 33.6179 28.4238 32.2184 28.4238 27.145C28.4238 22.4215 32.3132 19.6224 38.8338 19.6224C46.1551 19.6224 49.7586 22.1883 50.2162 27.7865C50.2162 27.9615 50.159 28.1364 50.0446 28.3114C49.9302 28.4279 49.7586 28.5446 49.587 28.5446H46.5555C46.2695 28.5446 45.9835 28.3114 45.9263 28.0197C45.2399 24.8124 43.4668 23.7627 38.7766 23.7627C33.5144 23.7627 32.8852 25.6289 32.8852 27.0284C32.8852 28.7195 33.6288 29.2444 40.7213 30.1774C47.7567 31.1104 51.0741 32.4517 51.0741 37.4668C51.0741 42.5984 46.8987 45.5142 39.6918 45.5142Z" fill="#5FA04E"/>
</g>
<path d="M11.9659 79.9091V93H10.4318L3.2983 82.7216H3.17045V93H1.58523V79.9091H3.11932L10.2784 90.2131H10.4062V79.9091H11.9659ZM18.9221 93.2045C18.0357 93.2045 17.258 92.9936 16.589 92.5717C15.9242 92.1499 15.4043 91.5597 15.0293 90.8011C14.6586 90.0426 14.4732 89.1562 14.4732 88.142C14.4732 87.1193 14.6586 86.2266 15.0293 85.4638C15.4043 84.701 15.9242 84.1087 16.589 83.6868C17.258 83.2649 18.0357 83.054 18.9221 83.054C19.8084 83.054 20.584 83.2649 21.2488 83.6868C21.9178 84.1087 22.4377 84.701 22.8084 85.4638C23.1834 86.2266 23.3709 87.1193 23.3709 88.142C23.3709 89.1562 23.1834 90.0426 22.8084 90.8011C22.4377 91.5597 21.9178 92.1499 21.2488 92.5717C20.584 92.9936 19.8084 93.2045 18.9221 93.2045ZM18.9221 91.8494C19.5953 91.8494 20.1493 91.6768 20.584 91.3317C21.0186 90.9865 21.3404 90.5327 21.5492 89.9702C21.758 89.4077 21.8624 88.7983 21.8624 88.142C21.8624 87.4858 21.758 86.8743 21.5492 86.3075C21.3404 85.7408 21.0186 85.2827 20.584 84.9332C20.1493 84.5838 19.5953 84.4091 18.9221 84.4091C18.2488 84.4091 17.6948 84.5838 17.2601 84.9332C16.8255 85.2827 16.5037 85.7408 16.2949 86.3075C16.0861 86.8743 15.9817 87.4858 15.9817 88.142C15.9817 88.7983 16.0861 89.4077 16.2949 89.9702C16.5037 90.5327 16.8255 90.9865 17.2601 91.3317C17.6948 91.6768 18.2488 91.8494 18.9221 91.8494ZM29.381 93.2045C28.5629 93.2045 27.8406 92.9979 27.2141 92.5845C26.5877 92.1669 26.0977 91.5788 25.744 90.8203C25.3903 90.0575 25.2134 89.1562 25.2134 88.1165C25.2134 87.0852 25.3903 86.1903 25.744 85.4318C26.0977 84.6733 26.5898 84.0874 27.2205 83.674C27.8512 83.2607 28.5799 83.054 29.4066 83.054C30.0458 83.054 30.5508 83.1605 30.9215 83.3736C31.2965 83.5824 31.582 83.821 31.7781 84.0895C31.9783 84.3537 32.1339 84.571 32.2447 84.7415H32.3725V79.9091H33.881V93H32.4237V91.4915H32.2447C32.1339 91.6705 31.9762 91.8963 31.7717 92.169C31.5671 92.4375 31.2752 92.6783 30.896 92.8913C30.5167 93.1001 30.0117 93.2045 29.381 93.2045ZM29.5856 91.8494C30.1907 91.8494 30.7021 91.6918 31.1197 91.3764C31.5373 91.0568 31.8548 90.6158 32.0721 90.0533C32.2894 89.4865 32.3981 88.8324 32.3981 88.0909C32.3981 87.358 32.2915 86.7166 32.0785 86.1669C31.8654 85.6129 31.5501 85.1825 31.1325 84.8757C30.7148 84.5646 30.1992 84.4091 29.5856 84.4091C28.9464 84.4091 28.4137 84.5732 27.9876 84.9013C27.5657 85.2251 27.2482 85.6662 27.0352 86.2244C26.8263 86.7784 26.7219 87.4006 26.7219 88.0909C26.7219 88.7898 26.8285 89.4247 27.0415 89.9957C27.2589 90.5625 27.5785 91.0142 28.0004 91.3509C28.4265 91.6832 28.9549 91.8494 29.5856 91.8494ZM40.9698 93.2045C40.0238 93.2045 39.2077 92.9957 38.5217 92.5781C37.8398 92.1562 37.3136 91.5682 36.9428 90.8139C36.5763 90.0554 36.3931 89.1733 36.3931 88.1676C36.3931 87.1619 36.5763 86.2756 36.9428 85.5085C37.3136 84.7372 37.8292 84.1364 38.4897 83.706C39.1545 83.2713 39.93 83.054 40.8164 83.054C41.3278 83.054 41.8327 83.1392 42.3313 83.3097C42.8299 83.4801 43.2837 83.7571 43.6928 84.1406C44.1019 84.5199 44.4279 85.0227 44.6708 85.6491C44.9137 86.2756 45.0352 87.0469 45.0352 87.9631V88.6023H37.467V87.2983H43.5011C43.5011 86.7443 43.3903 86.25 43.1687 85.8153C42.9513 85.3807 42.6403 85.0376 42.2354 84.7862C41.8349 84.5348 41.3619 84.4091 40.8164 84.4091C40.2156 84.4091 39.6957 84.5582 39.2567 84.8565C38.8221 85.1506 38.4876 85.5341 38.2532 86.0071C38.0188 86.4801 37.9016 86.9872 37.9016 87.5284V88.3977C37.9016 89.1392 38.0295 89.7678 38.2852 90.2834C38.5451 90.7947 38.9052 91.1847 39.3654 91.4531C39.8256 91.7173 40.3604 91.8494 40.9698 91.8494C41.3661 91.8494 41.7241 91.794 42.0437 91.6832C42.3675 91.5682 42.6467 91.3977 42.881 91.1719C43.1154 90.9418 43.2965 90.6562 43.4244 90.3153L44.8817 90.7244C44.7283 91.2188 44.4705 91.6534 44.1083 92.0284C43.7461 92.3991 43.2987 92.6889 42.766 92.8977C42.2333 93.1023 41.6346 93.2045 40.9698 93.2045ZM48.4293 93.1023C48.114 93.1023 47.8434 92.9893 47.6175 92.7635C47.3917 92.5376 47.2788 92.267 47.2788 91.9517C47.2788 91.6364 47.3917 91.3658 47.6175 91.1399C47.8434 90.9141 48.114 90.8011 48.4293 90.8011C48.7447 90.8011 49.0153 90.9141 49.2411 91.1399C49.467 91.3658 49.5799 91.6364 49.5799 91.9517C49.5799 92.1605 49.5266 92.3523 49.4201 92.527C49.3178 92.7017 49.1793 92.8423 49.0046 92.9489C48.8342 93.0511 48.6424 93.1023 48.4293 93.1023ZM52.2869 83.1818H53.7955V93.7159C53.7955 94.321 53.6911 94.8452 53.4822 95.2884C53.2777 95.7315 52.9666 96.0746 52.549 96.3175C52.1357 96.5604 51.6136 96.6818 50.983 96.6818C50.9318 96.6818 50.8807 96.6818 50.8295 96.6818C50.7784 96.6818 50.7273 96.6818 50.6761 96.6818V95.2756C50.7273 95.2756 50.7741 95.2756 50.8168 95.2756C50.8594 95.2756 50.9062 95.2756 50.9574 95.2756C51.4176 95.2756 51.7543 95.1392 51.9673 94.8665C52.1804 94.598 52.2869 94.2145 52.2869 93.7159V83.1818ZM53.0284 81.5455C52.7344 81.5455 52.4808 81.4453 52.2678 81.245C52.0589 81.0447 51.9545 80.804 51.9545 80.5227C51.9545 80.2415 52.0589 80.0007 52.2678 79.8004C52.4808 79.6001 52.7344 79.5 53.0284 79.5C53.3224 79.5 53.5739 79.6001 53.7827 79.8004C53.9957 80.0007 54.1023 80.2415 54.1023 80.5227C54.1023 80.804 53.9957 81.0447 53.7827 81.245C53.5739 81.4453 53.3224 81.5455 53.0284 81.5455ZM63.513 85.3807L62.1578 85.7642C62.0726 85.5384 61.9469 85.3189 61.7807 85.1058C61.6188 84.8885 61.3972 84.7095 61.1159 84.5689C60.8347 84.4283 60.4746 84.358 60.0357 84.358C59.4348 84.358 58.9341 84.4964 58.5336 84.7734C58.1373 85.0462 57.9391 85.3935 57.9391 85.8153C57.9391 86.1903 58.0755 86.4865 58.3482 86.7038C58.6209 86.9212 59.0471 87.1023 59.6266 87.2472L61.084 87.6051C61.9618 87.8182 62.6159 88.1442 63.0463 88.5831C63.4767 89.0178 63.6919 89.5781 63.6919 90.2642C63.6919 90.8267 63.53 91.3295 63.2061 91.7727C62.8865 92.2159 62.4391 92.5653 61.8638 92.821C61.2885 93.0767 60.6195 93.2045 59.8567 93.2045C58.8553 93.2045 58.0265 92.9872 57.3702 92.5526C56.714 92.1179 56.2985 91.483 56.1238 90.6477L57.5556 90.2898C57.6919 90.8182 57.9498 91.2145 58.329 91.4787C58.7125 91.7429 59.2132 91.875 59.8311 91.875C60.5343 91.875 61.0925 91.7259 61.5059 91.4276C61.9235 91.125 62.1323 90.7628 62.1323 90.3409C62.1323 90 62.013 89.7145 61.7743 89.4844C61.5357 89.25 61.1692 89.0753 60.6749 88.9602L59.0385 88.5767C58.1394 88.3636 57.4789 88.0334 57.057 87.5859C56.6394 87.1342 56.4306 86.5696 56.4306 85.892C56.4306 85.3381 56.5861 84.848 56.8972 84.4219C57.2125 83.9957 57.6408 83.6612 58.182 83.4183C58.7275 83.1754 59.3453 83.054 60.0357 83.054C61.0073 83.054 61.7701 83.267 62.324 83.6932C62.8823 84.1193 63.2786 84.6818 63.513 85.3807Z" fill="#D1D5DB"/>
</g>
<defs>
<clipPath id="clip0_327_1893">
<rect width="65" height="100" fill="white"/>
</clipPath>
<clipPath id="clip1_327_1893">
<rect width="56.32" height="64" fill="white" transform="translate(4.33984)"/>
</clipPath>
</defs>
</svg>
