<svg width="70" height="100" viewBox="0 0 70 100" fill="none" xmlns="http://www.w3.org/2000/svg">
<g clip-path="url(#clip0_327_1938)">
<g clip-path="url(#clip1_327_1938)">
<path d="M4.1387 40.4784C3.38415 37.7306 3 34.8764 3 32.0018C3 18.879 11.2417 6.88003 23.5099 2.14832L25.1184 6.31128C14.5582 10.3852 7.46553 20.7086 7.46553 32.0018C7.46553 34.479 7.79477 36.9322 8.443 39.2963L4.1387 40.4784Z" fill="#58D09E"/>
<path d="M23.2953 2.2505C25.9492 1.21286 28.7476 0.532471 31.6065 0.231986C44.6574 -1.13972 57.4521 5.80258 63.4403 17.509L59.4682 19.5438C54.3128 9.46734 43.3046 3.4926 32.0732 4.67306C29.6096 4.93199 27.2043 5.51586 24.9208 6.40766L23.2953 2.2505Z" fill="#58D09E"/>
<path d="M49.6472 55.2685C58.3616 49.7137 63.2154 39.8557 62.3136 29.5475C61.994 25.895 60.9803 22.4066 59.3056 19.1861L63.2626 17.1219C65.2101 20.866 66.3898 24.9148 66.7611 29.1584C67.8088 41.1339 62.1724 52.5821 52.0473 59.0351L49.6472 55.2685Z" fill="#F9FAFB"/>
<path d="M25.5028 25.3992C28.0922 25.3992 30.2015 26.78 31.2854 29.1887L31.3711 29.3772L35.7199 27.9004L35.6274 27.6778C33.9434 23.5764 30.0643 21.0272 25.5028 21.0272C22.2959 21.0272 19.6894 22.0552 17.5355 24.1658C15.3953 26.2627 14.3115 28.901 14.3115 32.0086C14.3115 35.0888 15.3953 37.7134 17.5355 39.8103C19.6894 41.921 22.2959 42.9488 25.5028 42.9488C30.0643 42.9488 33.9434 40.3996 35.6274 36.3018L35.7199 36.0791L31.3642 34.5988L31.2819 34.7942C30.3112 37.1618 28.1506 38.5768 25.5028 38.5768C23.6987 38.5768 22.1759 37.9464 20.9686 36.706C19.7476 35.4486 19.1303 33.8691 19.1303 32.012C19.1303 30.1412 19.7339 28.5926 20.9686 27.2768C22.1724 26.0298 23.6987 25.3992 25.5028 25.3992Z" fill="#F9FAFB"/>
<path d="M52.7413 21.4316L46.5438 37.1138L40.3051 21.4316H35.2017L43.9509 42.8358L37.7259 57.932L42.1881 58.8195L57.5635 21.4316H52.7413Z" fill="#F9FAFB"/>
<path d="M38.5245 55.9858L37.4373 58.6173C37.2212 59.1381 36.7273 59.4909 36.1717 59.5149C35.8048 59.5286 35.4344 59.5389 35.0605 59.5389C22.2641 59.5321 10.9426 50.5106 8.13704 38.08L3.78125 39.0633C5.35551 46.0358 9.30659 52.3642 14.9073 56.887C20.5733 61.461 27.7105 63.9862 35.0125 64C35.0228 64 35.0776 64 35.0776 64C35.5064 64 35.9316 63.9897 36.3569 63.9726C38.648 63.8766 40.6956 62.441 41.5701 60.3133L42.99 56.8733L38.5245 55.9858Z" fill="#F9FAFB"/>
</g>
<path d="M12.1193 84H10.5341C10.4403 83.544 10.2763 83.1435 10.0419 82.7983C9.81179 82.4531 9.53054 82.1634 9.19815 81.929C8.87003 81.6903 8.50568 81.5114 8.10511 81.392C7.70455 81.2727 7.28693 81.2131 6.85227 81.2131C6.05966 81.2131 5.34162 81.4134 4.69815 81.8139C4.05895 82.2145 3.54972 82.8047 3.17045 83.5845C2.79545 84.3643 2.60795 85.321 2.60795 86.4545C2.60795 87.5881 2.79545 88.5447 3.17045 89.3246C3.54972 90.1044 4.05895 90.6946 4.69815 91.0952C5.34162 91.4957 6.05966 91.696 6.85227 91.696C7.28693 91.696 7.70455 91.6364 8.10511 91.517C8.50568 91.3977 8.87003 91.2209 9.19815 90.9865C9.53054 90.7479 9.81179 90.456 10.0419 90.1108C10.2763 89.7614 10.4403 89.3608 10.5341 88.9091H12.1193C12 89.5781 11.7827 90.1768 11.4673 90.7053C11.152 91.2337 10.7599 91.6832 10.2912 92.054C9.82244 92.4205 9.29617 92.6996 8.71236 92.8913C8.13281 93.0831 7.51278 93.179 6.85227 93.179C5.7358 93.179 4.7429 92.9062 3.87358 92.3608C3.00426 91.8153 2.32031 91.0398 1.82173 90.0341C1.32315 89.0284 1.07386 87.8352 1.07386 86.4545C1.07386 85.0739 1.32315 83.8807 1.82173 82.875C2.32031 81.8693 3.00426 81.0938 3.87358 80.5483C4.7429 80.0028 5.7358 79.7301 6.85227 79.7301C7.51278 79.7301 8.13281 79.826 8.71236 80.0178C9.29617 80.2095 9.82244 80.4908 10.2912 80.8615C10.7599 81.228 11.152 81.6754 11.4673 82.2038C11.7827 82.728 12 83.3267 12.1193 84ZM15.448 96.6818C15.1923 96.6818 14.9643 96.6605 14.764 96.6179C14.5637 96.5795 14.4252 96.5412 14.3485 96.5028L14.7321 95.1733C15.0985 95.267 15.4224 95.3011 15.7037 95.2756C15.9849 95.25 16.2342 95.1243 16.4515 94.8984C16.6731 94.6768 16.8755 94.3168 17.0588 93.8182L17.34 93.0511L13.7093 83.1818H15.3457L18.0559 91.0057H18.1582L20.8684 83.1818H22.5048L18.3372 94.4318C18.1497 94.9389 17.9174 95.3587 17.6404 95.6911C17.3635 96.0277 17.0417 96.277 16.6752 96.4389C16.313 96.6009 15.9039 96.6818 15.448 96.6818ZM24.4959 96.6818V83.1818H25.9533V84.7415H26.1323C26.2431 84.571 26.3965 84.3537 26.5925 84.0895C26.7928 83.821 27.0783 83.5824 27.449 83.3736C27.824 83.1605 28.3311 83.054 28.9703 83.054C29.7971 83.054 30.5257 83.2607 31.1564 83.674C31.7871 84.0874 32.2793 84.6733 32.633 85.4318C32.9867 86.1903 33.1635 87.0852 33.1635 88.1165C33.1635 89.1562 32.9867 90.0575 32.633 90.8203C32.2793 91.5788 31.7892 92.1669 31.1628 92.5845C30.5364 92.9979 29.8141 93.2045 28.9959 93.2045C28.3652 93.2045 27.8603 93.1001 27.481 92.8913C27.1017 92.6783 26.8098 92.4375 26.6053 92.169C26.4007 91.8963 26.2431 91.6705 26.1323 91.4915H26.0044V96.6818H24.4959ZM25.9789 88.0909C25.9789 88.8324 26.0875 89.4865 26.3049 90.0533C26.5222 90.6158 26.8397 91.0568 27.2573 91.3764C27.6749 91.6918 28.1863 91.8494 28.7914 91.8494C29.4221 91.8494 29.9483 91.6832 30.3702 91.3509C30.7963 91.0142 31.1159 90.5625 31.329 89.9957C31.5463 89.4247 31.655 88.7898 31.655 88.0909C31.655 87.4006 31.5485 86.7784 31.3354 86.2244C31.1266 85.6662 30.8091 85.2251 30.383 84.9013C29.9611 84.5732 29.4306 84.4091 28.7914 84.4091C28.1777 84.4091 27.6621 84.5646 27.2445 84.8757C26.8269 85.1825 26.5115 85.6129 26.2985 86.1669C26.0854 86.7166 25.9789 87.358 25.9789 88.0909ZM35.4647 93V83.1818H36.9221V84.6648H37.0243C37.2033 84.179 37.5272 83.7848 37.9959 83.4822C38.4647 83.1797 38.9931 83.0284 39.5811 83.0284C39.6919 83.0284 39.8304 83.0305 39.9966 83.0348C40.1628 83.0391 40.2885 83.0455 40.3738 83.054V84.5881C40.3226 84.5753 40.2054 84.5561 40.0222 84.5305C39.8432 84.5007 39.6536 84.4858 39.4533 84.4858C38.976 84.4858 38.5499 84.5859 38.1749 84.7862C37.8042 84.9822 37.5101 85.255 37.2928 85.6044C37.0797 85.9496 36.9732 86.3437 36.9732 86.7869V93H35.4647ZM45.9796 93.2045C45.0336 93.2045 44.2175 92.9957 43.5314 92.5781C42.8496 92.1562 42.3233 91.5682 41.9526 90.8139C41.5861 90.0554 41.4029 89.1733 41.4029 88.1676C41.4029 87.1619 41.5861 86.2756 41.9526 85.5085C42.3233 84.7372 42.839 84.1364 43.4995 83.706C44.1642 83.2713 44.9398 83.054 45.8262 83.054C46.3375 83.054 46.8425 83.1392 47.3411 83.3097C47.8397 83.4801 48.2935 83.7571 48.7026 84.1406C49.1117 84.5199 49.4377 85.0227 49.6806 85.6491C49.9235 86.2756 50.0449 87.0469 50.0449 87.9631V88.6023H42.4767V87.2983H48.5108C48.5108 86.7443 48.4 86.25 48.1784 85.8153C47.9611 85.3807 47.65 85.0376 47.2452 84.7862C46.8446 84.5348 46.3716 84.4091 45.8262 84.4091C45.2253 84.4091 44.7054 84.5582 44.2665 84.8565C43.8319 85.1506 43.4973 85.5341 43.263 86.0071C43.0286 86.4801 42.9114 86.9872 42.9114 87.5284V88.3977C42.9114 89.1392 43.0392 89.7678 43.2949 90.2834C43.5549 90.7947 43.915 91.1847 44.3752 91.4531C44.8354 91.7173 45.3702 91.8494 45.9796 91.8494C46.3759 91.8494 46.7338 91.794 47.0534 91.6832C47.3773 91.5682 47.6564 91.3977 47.8908 91.1719C48.1252 90.9418 48.3063 90.6562 48.4341 90.3153L49.8915 90.7244C49.7381 91.2188 49.4803 91.6534 49.1181 92.0284C48.7559 92.3991 48.3084 92.6889 47.7757 92.8977C47.2431 93.1023 46.6444 93.2045 45.9796 93.2045ZM59.2942 85.3807L57.9391 85.7642C57.8539 85.5384 57.7282 85.3189 57.562 85.1058C57.4 84.8885 57.1784 84.7095 56.8972 84.5689C56.6159 84.4283 56.2559 84.358 55.8169 84.358C55.2161 84.358 54.7154 84.4964 54.3148 84.7734C53.9185 85.0462 53.7203 85.3935 53.7203 85.8153C53.7203 86.1903 53.8567 86.4865 54.1294 86.7038C54.4022 86.9212 54.8283 87.1023 55.4078 87.2472L56.8652 87.6051C57.7431 87.8182 58.3972 88.1442 58.8276 88.5831C59.258 89.0178 59.4732 89.5781 59.4732 90.2642C59.4732 90.8267 59.3113 91.3295 58.9874 91.7727C58.6678 92.2159 58.2203 92.5653 57.6451 92.821C57.0698 93.0767 56.4007 93.2045 55.638 93.2045C54.6365 93.2045 53.8077 92.9872 53.1515 92.5526C52.4952 92.1179 52.0797 91.483 51.905 90.6477L53.3368 90.2898C53.4732 90.8182 53.731 91.2145 54.1103 91.4787C54.4938 91.7429 54.9945 91.875 55.6124 91.875C56.3155 91.875 56.8738 91.7259 57.2871 91.4276C57.7047 91.125 57.9135 90.7628 57.9135 90.3409C57.9135 90 57.7942 89.7145 57.5556 89.4844C57.3169 89.25 56.9505 89.0753 56.4561 88.9602L54.8198 88.5767C53.9206 88.3636 53.2601 88.0334 52.8382 87.5859C52.4206 87.1342 52.2118 86.5696 52.2118 85.892C52.2118 85.3381 52.3674 84.848 52.6784 84.4219C52.9938 83.9957 53.4221 83.6612 53.9632 83.4183C54.5087 83.1754 55.1266 83.054 55.8169 83.054C56.7885 83.054 57.5513 83.267 58.1053 83.6932C58.6635 84.1193 59.0598 84.6818 59.2942 85.3807ZM68.6985 85.3807L67.3434 85.7642C67.2582 85.5384 67.1325 85.3189 66.9663 85.1058C66.8043 84.8885 66.5827 84.7095 66.3015 84.5689C66.0202 84.4283 65.6602 84.358 65.2212 84.358C64.6204 84.358 64.1197 84.4964 63.7191 84.7734C63.3228 85.0462 63.1246 85.3935 63.1246 85.8153C63.1246 86.1903 63.261 86.4865 63.5337 86.7038C63.8065 86.9212 64.2326 87.1023 64.8121 87.2472L66.2695 87.6051C67.1474 87.8182 67.8015 88.1442 68.2319 88.5831C68.6623 89.0178 68.8775 89.5781 68.8775 90.2642C68.8775 90.8267 68.7156 91.3295 68.3917 91.7727C68.0721 92.2159 67.6246 92.5653 67.0494 92.821C66.4741 93.0767 65.805 93.2045 65.0423 93.2045C64.0408 93.2045 63.212 92.9872 62.5558 92.5526C61.8995 92.1179 61.484 91.483 61.3093 90.6477L62.7411 90.2898C62.8775 90.8182 63.1353 91.2145 63.5146 91.4787C63.8981 91.7429 64.3988 91.875 65.0167 91.875C65.7198 91.875 66.2781 91.7259 66.6914 91.4276C67.109 91.125 67.3178 90.7628 67.3178 90.3409C67.3178 90 67.1985 89.7145 66.9599 89.4844C66.7212 89.25 66.3548 89.0753 65.8604 88.9602L64.2241 88.5767C63.3249 88.3636 62.6644 88.0334 62.2425 87.5859C61.8249 87.1342 61.6161 86.5696 61.6161 85.892C61.6161 85.3381 61.7717 84.848 62.0827 84.4219C62.3981 83.9957 62.8263 83.6612 63.3675 83.4183C63.913 83.1754 64.5309 83.054 65.2212 83.054C66.1928 83.054 66.9556 83.267 67.5096 83.6932C68.0678 84.1193 68.4641 84.6818 68.6985 85.3807Z" fill="#D1D5DB"/>
</g>
<defs>
<clipPath id="clip0_327_1938">
<rect width="70" height="100" fill="white"/>
</clipPath>
<clipPath id="clip1_327_1938">
<rect width="64" height="64" fill="white" transform="translate(3)"/>
</clipPath>
</defs>
</svg>
