<svg width="84" height="100" viewBox="0 0 84 100" fill="none" xmlns="http://www.w3.org/2000/svg">
<g clip-path="url(#clip0_327_1914)">
<g clip-path="url(#clip1_327_1914)">
<path d="M47.7076 7.13325C45.0096 3.94632 42.6864 0.709589 42.2118 0.0373468C42.1618 -0.0124489 42.0868 -0.0124489 42.0369 0.0373468C41.5622 0.709589 39.239 3.94632 36.541 7.13325C13.3836 36.5376 40.1883 56.3813 40.1883 56.3813L40.4131 56.5306C40.6129 59.5932 41.1126 64 41.1126 64H42.1118H43.1111C43.1111 64 43.6107 59.618 43.8105 56.5306L44.0353 56.3565C44.0603 56.3565 70.8649 36.5376 47.7076 7.13325ZM42.1118 55.933C42.1118 55.933 40.9127 54.9123 40.588 54.3893V54.3397L42.0369 22.3209C42.0369 22.2213 42.1868 22.2213 42.1868 22.3209L43.6357 54.3397V54.3893C43.3109 54.9123 42.1118 55.933 42.1118 55.933Z" fill="#00684A"/>
</g>
<path d="M1.58523 79.9091H3.47727L7.92614 90.7756H8.07955L12.5284 79.9091H14.4205V93H12.9375V83.054H12.8097L8.71875 93H7.28693L3.19602 83.054H3.06818V93H1.58523V79.9091ZM21.383 93.2045C20.4966 93.2045 19.7189 92.9936 19.0499 92.5717C18.3851 92.1499 17.8652 91.5597 17.4902 90.8011C17.1195 90.0426 16.9341 89.1562 16.9341 88.142C16.9341 87.1193 17.1195 86.2266 17.4902 85.4638C17.8652 84.701 18.3851 84.1087 19.0499 83.6868C19.7189 83.2649 20.4966 83.054 21.383 83.054C22.2694 83.054 23.0449 83.2649 23.7097 83.6868C24.3787 84.1087 24.8986 84.701 25.2694 85.4638C25.6444 86.2266 25.8319 87.1193 25.8319 88.142C25.8319 89.1562 25.6444 90.0426 25.2694 90.8011C24.8986 91.5597 24.3787 92.1499 23.7097 92.5717C23.0449 92.9936 22.2694 93.2045 21.383 93.2045ZM21.383 91.8494C22.0563 91.8494 22.6103 91.6768 23.0449 91.3317C23.4796 90.9865 23.8013 90.5327 24.0101 89.9702C24.2189 89.4077 24.3233 88.7983 24.3233 88.142C24.3233 87.4858 24.2189 86.8743 24.0101 86.3075C23.8013 85.7408 23.4796 85.2827 23.0449 84.9332C22.6103 84.5838 22.0563 84.4091 21.383 84.4091C20.7097 84.4091 20.1557 84.5838 19.7211 84.9332C19.2864 85.2827 18.9647 85.7408 18.7559 86.3075C18.5471 86.8743 18.4426 87.4858 18.4426 88.142C18.4426 88.7983 18.5471 89.4077 18.7559 89.9702C18.9647 90.5327 19.2864 90.9865 19.7211 91.3317C20.1557 91.6768 20.7097 91.8494 21.383 91.8494ZM29.6431 87.0938V93H28.1346V83.1818H29.592V84.7159H29.7198C29.9499 84.2173 30.2994 83.8168 30.7681 83.5142C31.2369 83.2074 31.842 83.054 32.5835 83.054C33.2482 83.054 33.8299 83.1903 34.3285 83.4631C34.8271 83.7315 35.2148 84.1406 35.4918 84.6903C35.7688 85.2358 35.9073 85.9261 35.9073 86.7614V93H34.3988V86.8636C34.3988 86.0923 34.1985 85.4915 33.7979 85.0611C33.3974 84.6264 32.8477 84.4091 32.1488 84.4091C31.6673 84.4091 31.2369 84.5135 30.8576 84.7223C30.4826 84.9311 30.1864 85.2358 29.9691 85.6364C29.7518 86.0369 29.6431 86.5227 29.6431 87.0938ZM42.627 96.8864C41.8983 96.8864 41.2718 96.7926 40.7477 96.6051C40.2235 96.4219 39.7868 96.179 39.4373 95.8764C39.0922 95.5781 38.8173 95.2585 38.6127 94.9176L39.8145 94.0739C39.9508 94.2528 40.1234 94.4574 40.3322 94.6875C40.541 94.9219 40.8265 95.1243 41.1887 95.2947C41.5552 95.4695 42.0346 95.5568 42.627 95.5568C43.4196 95.5568 44.0737 95.3651 44.5893 94.9815C45.1049 94.598 45.3627 93.9972 45.3627 93.179V91.1847H45.2349C45.1241 91.3636 44.9664 91.5852 44.7619 91.8494C44.5616 92.1094 44.2718 92.3416 43.8926 92.5462C43.5176 92.7464 43.0105 92.8466 42.3713 92.8466C41.5787 92.8466 40.867 92.6591 40.2363 92.2841C39.6099 91.9091 39.1135 91.3636 38.747 90.6477C38.3848 89.9318 38.2037 89.0625 38.2037 88.0398C38.2037 87.0341 38.3805 86.1584 38.7342 85.4126C39.0879 84.6626 39.5801 84.0831 40.2108 83.674C40.8414 83.2607 41.5701 83.054 42.3968 83.054C43.036 83.054 43.5431 83.1605 43.9181 83.3736C44.2974 83.5824 44.5872 83.821 44.7875 84.0895C44.992 84.3537 45.1497 84.571 45.2605 84.7415H45.4139V83.1818H46.8713V93.2812C46.8713 94.125 46.6795 94.8111 46.296 95.3395C45.9167 95.8722 45.4054 96.2621 44.7619 96.5092C44.1227 96.7607 43.411 96.8864 42.627 96.8864ZM42.5758 91.4915C43.1809 91.4915 43.6923 91.353 44.1099 91.076C44.5275 90.799 44.845 90.4006 45.0623 89.8807C45.2797 89.3608 45.3883 88.7386 45.3883 88.0142C45.3883 87.3068 45.2818 86.6825 45.0687 86.1413C44.8556 85.6001 44.5403 85.1761 44.1227 84.8693C43.7051 84.5625 43.1895 84.4091 42.5758 84.4091C41.9366 84.4091 41.4039 84.571 40.9778 84.8949C40.5559 85.2187 40.2385 85.6534 40.0254 86.1989C39.8166 86.7443 39.7122 87.3494 39.7122 88.0142C39.7122 88.696 39.8187 89.299 40.0318 89.8232C40.2491 90.343 40.5687 90.7521 40.9906 91.0504C41.4167 91.3445 41.9451 91.4915 42.5758 91.4915ZM53.6213 93.2045C52.7349 93.2045 51.9572 92.9936 51.2882 92.5717C50.6234 92.1499 50.1035 91.5597 49.7285 90.8011C49.3578 90.0426 49.1724 89.1562 49.1724 88.142C49.1724 87.1193 49.3578 86.2266 49.7285 85.4638C50.1035 84.701 50.6234 84.1087 51.2882 83.6868C51.9572 83.2649 52.7349 83.054 53.6213 83.054C54.5076 83.054 55.2832 83.2649 55.948 83.6868C56.617 84.1087 57.1369 84.701 57.5076 85.4638C57.8826 86.2266 58.0701 87.1193 58.0701 88.142C58.0701 89.1562 57.8826 90.0426 57.5076 90.8011C57.1369 91.5597 56.617 92.1499 55.948 92.5717C55.2832 92.9936 54.5076 93.2045 53.6213 93.2045ZM53.6213 91.8494C54.2946 91.8494 54.8485 91.6768 55.2832 91.3317C55.7179 90.9865 56.0396 90.5327 56.2484 89.9702C56.4572 89.4077 56.5616 88.7983 56.5616 88.142C56.5616 87.4858 56.4572 86.8743 56.2484 86.3075C56.0396 85.7408 55.7179 85.2827 55.2832 84.9332C54.8485 84.5838 54.2946 84.4091 53.6213 84.4091C52.948 84.4091 52.394 84.5838 51.9593 84.9332C51.5247 85.2827 51.2029 85.7408 50.9941 86.3075C50.7853 86.8743 50.6809 87.4858 50.6809 88.142C50.6809 88.7983 50.7853 89.4077 50.9941 89.9702C51.2029 90.5327 51.5247 90.9865 51.9593 91.3317C52.394 91.6768 52.948 91.8494 53.6213 91.8494ZM64.6172 93H60.5774V79.9091H64.7962C66.0661 79.9091 67.1527 80.1712 68.0561 80.6953C68.9595 81.2152 69.652 81.9631 70.1335 82.9389C70.6151 83.9105 70.8558 85.0739 70.8558 86.429C70.8558 87.7926 70.6129 88.9666 70.1271 89.951C69.6413 90.9311 68.9339 91.6854 68.005 92.2138C67.076 92.7379 65.9467 93 64.6172 93ZM62.1626 91.5938H64.5149C65.5973 91.5938 66.4943 91.3849 67.206 90.9673C67.9176 90.5497 68.4482 89.9553 68.7976 89.1839C69.147 88.4126 69.3217 87.4943 69.3217 86.429C69.3217 85.3722 69.1491 84.4624 68.804 83.6996C68.4588 82.9325 67.9432 82.3445 67.2571 81.9354C66.571 81.522 65.7166 81.3153 64.6939 81.3153H62.1626V91.5938ZM73.5149 93V79.9091H78.0916C79.0036 79.9091 79.7557 80.0668 80.348 80.3821C80.9403 80.6932 81.3814 81.1129 81.6712 81.6413C81.9609 82.1655 82.1058 82.7472 82.1058 83.3864C82.1058 83.9489 82.0057 84.4134 81.8054 84.7798C81.6094 85.1463 81.3494 85.4361 81.0256 85.6491C80.706 85.8622 80.3587 86.0199 79.9837 86.1222V86.25C80.3842 86.2756 80.7869 86.4162 81.1918 86.6719C81.5966 86.9276 81.9354 87.294 82.2081 87.7713C82.4808 88.2486 82.6172 88.8324 82.6172 89.5227C82.6172 90.179 82.468 90.7692 82.1697 91.2933C81.8714 91.8175 81.4006 92.233 80.7571 92.5398C80.1136 92.8466 79.2763 93 78.245 93H73.5149ZM75.1001 91.5938H78.245C79.2805 91.5938 80.0156 91.3935 80.4503 90.9929C80.8892 90.5881 81.1087 90.098 81.1087 89.5227C81.1087 89.0795 80.9957 88.6705 80.7699 88.2955C80.544 87.9162 80.2223 87.6136 79.8047 87.3878C79.3871 87.1577 78.8928 87.0426 78.3217 87.0426H75.1001V91.5938ZM75.1001 85.6619H78.0405C78.5178 85.6619 78.9482 85.5682 79.3317 85.3807C79.7195 85.1932 80.0263 84.929 80.2521 84.5881C80.4822 84.2472 80.5973 83.8466 80.5973 83.3864C80.5973 82.8111 80.397 82.3232 79.9964 81.9226C79.5959 81.5178 78.9609 81.3153 78.0916 81.3153H75.1001V85.6619Z" fill="#D1D5DB"/>
</g>
<defs>
<clipPath id="clip0_327_1914">
<rect width="84" height="100" fill="white"/>
</clipPath>
<clipPath id="clip1_327_1914">
<rect width="29.7674" height="64" fill="white" transform="translate(27.1162)"/>
</clipPath>
</defs>
</svg>
