<svg width="105" height="100" viewBox="0 0 105 100" fill="none" xmlns="http://www.w3.org/2000/svg">
<g clip-path="url(#clip0_327_1922)">
<g clip-path="url(#clip1_327_1922)">
<mask id="mask0_327_1922" style="mask-type:luminance" maskUnits="userSpaceOnUse" x="0" y="0" width="105" height="63">
<path d="M0 0H104.727V62.8364H0V0Z" fill="white"/>
</mask>
<g mask="url(#mask0_327_1922)">
<path fill-rule="evenodd" clip-rule="evenodd" d="M52.3636 0C38.4 0 29.6727 6.98182 26.1818 20.9455C31.4182 13.9636 37.5273 11.3455 44.5091 13.0909C48.4926 14.0858 51.3396 16.9775 54.4911 20.1755C59.6247 25.3867 65.567 31.4182 78.5454 31.4182C92.5091 31.4182 101.236 24.4364 104.727 10.4727C99.4909 17.4545 93.3818 20.0727 86.4 18.3273C82.4165 17.3324 79.5695 14.4407 76.4179 11.2427C71.2844 6.03151 65.3421 0 52.3636 0ZM26.1818 31.4182C12.2182 31.4182 3.49091 38.4 0 52.3636C5.23636 45.3818 11.3455 42.7636 18.3273 44.5091C22.3108 45.5059 25.1578 48.3956 28.3093 51.5937C33.4429 56.8048 39.3852 62.8364 52.3636 62.8364C66.3273 62.8364 75.0545 55.8545 78.5454 41.8909C73.3091 48.8727 67.2 51.4909 60.2182 49.7455C56.2347 48.7505 53.3876 45.8589 50.2361 42.6608C45.1025 37.4497 39.1602 31.4182 26.1818 31.4182Z" fill="#38BDF8"/>
</g>
</g>
<path d="M3.73309 81.3153V79.9091H13.5513V81.3153H9.43479V93H7.84957V81.3153H3.73309ZM17.3465 93.2301C16.7244 93.2301 16.1598 93.1129 15.6527 92.8786C15.1456 92.6399 14.7429 92.2969 14.4446 91.8494C14.1463 91.3977 13.9971 90.8523 13.9971 90.2131C13.9971 89.6506 14.1079 89.1946 14.3295 88.8452C14.5511 88.4915 14.8473 88.2145 15.218 88.0142C15.5887 87.8139 15.9978 87.6648 16.4453 87.5668C16.897 87.4645 17.3508 87.3835 17.8068 87.3239C18.4034 87.2472 18.887 87.1896 19.2578 87.1513C19.6328 87.1087 19.9055 87.0384 20.076 86.9403C20.2507 86.8423 20.338 86.6719 20.338 86.429V86.3778C20.338 85.7472 20.1654 85.2571 19.8203 84.9077C19.4794 84.5582 18.9616 84.3835 18.267 84.3835C17.5468 84.3835 16.9822 84.5412 16.5731 84.8565C16.164 85.1719 15.8764 85.5085 15.7102 85.8665L14.2784 85.3551C14.534 84.7585 14.875 84.294 15.3011 83.9616C15.7315 83.625 16.2002 83.3906 16.7073 83.2585C17.2187 83.1222 17.7215 83.054 18.2159 83.054C18.5312 83.054 18.8934 83.0923 19.3025 83.169C19.7159 83.2415 20.1143 83.3928 20.4978 83.6229C20.8856 83.853 21.2073 84.2003 21.463 84.6648C21.7187 85.1293 21.8465 85.7514 21.8465 86.5312V93H20.338V91.6705H20.2613C20.159 91.8835 19.9886 92.1115 19.75 92.3544C19.5113 92.5973 19.1938 92.804 18.7975 92.9744C18.4012 93.1449 17.9176 93.2301 17.3465 93.2301ZM17.5767 91.875C18.1733 91.875 18.6761 91.7578 19.0852 91.5234C19.4985 91.2891 19.8096 90.9865 20.0184 90.6158C20.2315 90.245 20.338 89.8551 20.338 89.446V88.0653C20.2741 88.142 20.1335 88.2124 19.9161 88.2763C19.7031 88.3359 19.4559 88.3892 19.1747 88.4361C18.8977 88.4787 18.6271 88.517 18.3629 88.5511C18.1029 88.581 17.892 88.6065 17.7301 88.6278C17.338 88.679 16.9715 88.7621 16.6306 88.8771C16.294 88.9879 16.0213 89.1562 15.8125 89.3821C15.6079 89.6037 15.5056 89.9062 15.5056 90.2898C15.5056 90.8139 15.6995 91.2102 16.0873 91.4787C16.4794 91.7429 16.9758 91.875 17.5767 91.875ZM24.5999 93V83.1818H26.1084V93H24.5999ZM25.367 81.5455C25.0729 81.5455 24.8194 81.4453 24.6063 81.245C24.3975 81.0447 24.2931 80.804 24.2931 80.5227C24.2931 80.2415 24.3975 80.0007 24.6063 79.8004C24.8194 79.6001 25.0729 79.5 25.367 79.5C25.661 79.5 25.9124 79.6001 26.1212 79.8004C26.3343 80.0007 26.4408 80.2415 26.4408 80.5227C26.4408 80.804 26.3343 81.0447 26.1212 81.245C25.9124 81.4453 25.661 81.5455 25.367 81.5455ZM30.3799 79.9091V93H28.8714V79.9091H30.3799ZM35.3673 93L32.3758 83.1818H33.9611L36.0832 90.6989H36.1855L38.2821 83.1818H39.8929L41.9639 90.6733H42.0662L44.1883 83.1818H45.7736L42.7821 93H41.2991L39.1514 85.4574H38.998L36.8503 93H35.3673ZM47.7679 93V83.1818H49.2764V93H47.7679ZM48.5349 81.5455C48.2409 81.5455 47.9873 81.4453 47.7743 81.245C47.5655 81.0447 47.4611 80.804 47.4611 80.5227C47.4611 80.2415 47.5655 80.0007 47.7743 79.8004C47.9873 79.6001 48.2409 79.5 48.5349 79.5C48.829 79.5 49.0804 79.6001 49.2892 79.8004C49.5023 80.0007 49.6088 80.2415 49.6088 80.5227C49.6088 80.804 49.5023 81.0447 49.2892 81.245C49.0804 81.4453 48.829 81.5455 48.5349 81.5455ZM53.5479 87.0938V93H52.0394V83.1818H53.4968V84.7159H53.6246C53.8547 84.2173 54.2041 83.8168 54.6729 83.5142C55.1416 83.2074 55.7468 83.054 56.4882 83.054C57.153 83.054 57.7347 83.1903 58.2333 83.4631C58.7318 83.7315 59.1196 84.1406 59.3966 84.6903C59.6736 85.2358 59.8121 85.9261 59.8121 86.7614V93H58.3036V86.8636C58.3036 86.0923 58.1033 85.4915 57.7027 85.0611C57.3022 84.6264 56.7524 84.4091 56.0536 84.4091C55.572 84.4091 55.1416 84.5135 54.7624 84.7223C54.3874 84.9311 54.0912 85.2358 53.8739 85.6364C53.6566 86.0369 53.5479 86.5227 53.5479 87.0938ZM66.2761 93.2045C65.4579 93.2045 64.7356 92.9979 64.1092 92.5845C63.4827 92.1669 62.9927 91.5788 62.639 90.8203C62.2853 90.0575 62.1084 89.1562 62.1084 88.1165C62.1084 87.0852 62.2853 86.1903 62.639 85.4318C62.9927 84.6733 63.4849 84.0874 64.1155 83.674C64.7462 83.2607 65.4749 83.054 66.3016 83.054C66.9408 83.054 67.4458 83.1605 67.8165 83.3736C68.1915 83.5824 68.4771 83.821 68.6731 84.0895C68.8734 84.3537 69.0289 84.571 69.1397 84.7415H69.2675V79.9091H70.7761V93H69.3187V91.4915H69.1397C69.0289 91.6705 68.8712 91.8963 68.6667 92.169C68.4621 92.4375 68.1702 92.6783 67.791 92.8913C67.4117 93.1001 66.9067 93.2045 66.2761 93.2045ZM66.4806 91.8494C67.0857 91.8494 67.5971 91.6918 68.0147 91.3764C68.4323 91.0568 68.7498 90.6158 68.9671 90.0533C69.1844 89.4865 69.2931 88.8324 69.2931 88.0909C69.2931 87.358 69.1866 86.7166 68.9735 86.1669C68.7604 85.6129 68.4451 85.1825 68.0275 84.8757C67.6099 84.5646 67.0942 84.4091 66.4806 84.4091C65.8414 84.4091 65.3087 84.5732 64.8826 84.9013C64.4607 85.2251 64.1432 85.6662 63.9302 86.2244C63.7214 86.7784 63.617 87.4006 63.617 88.0909C63.617 88.7898 63.7235 89.4247 63.9366 89.9957C64.1539 90.5625 64.4735 91.0142 64.8954 91.3509C65.3215 91.6832 65.8499 91.8494 66.4806 91.8494ZM77.737 93.2045C76.8165 93.2045 76.0239 92.9872 75.3592 92.5526C74.6944 92.1179 74.183 91.5192 73.8251 90.7564C73.4671 89.9936 73.2881 89.1222 73.2881 88.142C73.2881 87.1449 73.4714 86.2649 73.8378 85.5021C74.2086 84.7351 74.7242 84.1364 75.3847 83.706C76.0495 83.2713 76.8251 83.054 77.7114 83.054C78.4018 83.054 79.0239 83.1818 79.5779 83.4375C80.1319 83.6932 80.5857 84.0511 80.9394 84.5114C81.2931 84.9716 81.5126 85.5085 81.5978 86.1222H80.0893C79.9742 85.6747 79.7185 85.2784 79.3222 84.9332C78.9302 84.5838 78.4018 84.4091 77.737 84.4091C77.1489 84.4091 76.6333 84.5625 76.1901 84.8693C75.7512 85.1719 75.4082 85.6001 75.161 86.1541C74.9181 86.7038 74.7967 87.3494 74.7967 88.0909C74.7967 88.8494 74.916 89.5099 75.1546 90.0724C75.3975 90.6349 75.7384 91.0717 76.1773 91.3828C76.6205 91.6939 77.1404 91.8494 77.737 91.8494C78.129 91.8494 78.4849 91.7812 78.8045 91.6449C79.1241 91.5085 79.3947 91.3125 79.6163 91.0568C79.8378 90.8011 79.9955 90.4943 80.0893 90.1364H81.5978C81.5126 90.7159 81.3016 91.2379 80.965 91.7024C80.6326 92.1626 80.1915 92.5291 79.6418 92.8018C79.0964 93.0703 78.4614 93.2045 77.737 93.2045ZM90.7576 85.3807L89.4025 85.7642C89.3172 85.5384 89.1915 85.3189 89.0253 85.1058C88.8634 84.8885 88.6418 84.7095 88.3606 84.5689C88.0793 84.4283 87.7192 84.358 87.2803 84.358C86.6795 84.358 86.1788 84.4964 85.7782 84.7734C85.3819 85.0462 85.1837 85.3935 85.1837 85.8153C85.1837 86.1903 85.3201 86.4865 85.5928 86.7038C85.8655 86.9212 86.2917 87.1023 86.8712 87.2472L88.3286 87.6051C89.2065 87.8182 89.8606 88.1442 90.291 88.5831C90.7214 89.0178 90.9366 89.5781 90.9366 90.2642C90.9366 90.8267 90.7746 91.3295 90.4508 91.7727C90.1312 92.2159 89.6837 92.5653 89.1084 92.821C88.5332 93.0767 87.8641 93.2045 87.1013 93.2045C86.0999 93.2045 85.2711 92.9872 84.6148 92.5526C83.9586 92.1179 83.5431 91.483 83.3684 90.6477L84.8002 90.2898C84.9366 90.8182 85.1944 91.2145 85.5736 91.4787C85.9572 91.7429 86.4579 91.875 87.0758 91.875C87.7789 91.875 88.3371 91.7259 88.7505 91.4276C89.1681 91.125 89.3769 90.7628 89.3769 90.3409C89.3769 90 89.2576 89.7145 89.019 89.4844C88.7803 89.25 88.4138 89.0753 87.9195 88.9602L86.2832 88.5767C85.384 88.3636 84.7235 88.0334 84.3016 87.5859C83.884 87.1342 83.6752 86.5696 83.6752 85.892C83.6752 85.3381 83.8307 84.848 84.1418 84.4219C84.4572 83.9957 84.8854 83.6612 85.4266 83.4183C85.9721 83.1754 86.59 83.054 87.2803 83.054C88.2519 83.054 89.0147 83.267 89.5687 83.6932C90.1269 84.1193 90.5232 84.6818 90.7576 85.3807ZM100.162 85.3807L98.8068 85.7642C98.7215 85.5384 98.5958 85.3189 98.4296 85.1058C98.2677 84.8885 98.0461 84.7095 97.7649 84.5689C97.4836 84.4283 97.1235 84.358 96.6846 84.358C96.0838 84.358 95.5831 84.4964 95.1825 84.7734C94.7862 85.0462 94.588 85.3935 94.588 85.8153C94.588 86.1903 94.7244 86.4865 94.9971 86.7038C95.2698 86.9212 95.696 87.1023 96.2755 87.2472L97.7329 87.6051C98.6108 87.8182 99.2649 88.1442 99.6953 88.5831C100.126 89.0178 100.341 89.5781 100.341 90.2642C100.341 90.8267 100.179 91.3295 99.8551 91.7727C99.5355 92.2159 99.088 92.5653 98.5127 92.821C97.9375 93.0767 97.2684 93.2045 96.5056 93.2045C95.5042 93.2045 94.6754 92.9872 94.0191 92.5526C93.3629 92.1179 92.9474 91.483 92.7727 90.6477L94.2045 90.2898C94.3409 90.8182 94.5987 91.2145 94.9779 91.4787C95.3615 91.7429 95.8622 91.875 96.4801 91.875C97.1832 91.875 97.7414 91.7259 98.1548 91.4276C98.5724 91.125 98.7812 90.7628 98.7812 90.3409C98.7812 90 98.6619 89.7145 98.4233 89.4844C98.1846 89.25 97.8181 89.0753 97.3238 88.9602L95.6875 88.5767C94.7883 88.3636 94.1278 88.0334 93.7059 87.5859C93.2883 87.1342 93.0795 86.5696 93.0795 85.892C93.0795 85.3381 93.235 84.848 93.5461 84.4219C93.8615 83.9957 94.2897 83.6612 94.8309 83.4183C95.3764 83.1754 95.9943 83.054 96.6846 83.054C97.6562 83.054 98.419 83.267 98.973 83.6932C99.5312 84.1193 99.9275 84.6818 100.162 85.3807Z" fill="#D1D5DB"/>
</g>
<defs>
<clipPath id="clip0_327_1922">
<rect width="104.727" height="100" fill="white"/>
</clipPath>
<clipPath id="clip1_327_1922">
<rect width="104.727" height="64" fill="white"/>
</clipPath>
</defs>
</svg>
